<mxfile host="app.diagrams.net" modified="2023-08-30T06:06:43.951Z" agent="Mozilla/5.0 (X11; Linux x86_64) AppleWebKit/537.36 (KHTML, like Gecko) Chrome/114.0.0.0 Safari/537.36 Edg/114.0.1823.67" etag="UeGOZoY3hMAGKKpH0KPy" version="21.7.0" type="device">
  <diagram id="R2lEEEUBdFMjLlhIrx00" name="Page-1">
    <mxGraphModel dx="881" dy="2566" grid="1" gridSize="10" guides="1" tooltips="1" connect="1" arrows="1" fold="1" page="1" pageScale="1" pageWidth="850" pageHeight="1100" math="0" shadow="0" extFonts="Permanent Marker^https://fonts.googleapis.com/css?family=Permanent+Marker">
      <root>
        <mxCell id="0" />
        <mxCell id="1" parent="0" />
        <mxCell id="JVc2vC-KZvhllYqEc3Bq-21" style="rounded=0;orthogonalLoop=1;jettySize=auto;html=1;entryX=0;entryY=0.5;entryDx=0;entryDy=0;fillColor=#0050ef;strokeColor=#F403FC;strokeWidth=2;exitX=0;exitY=0.5;exitDx=0;exitDy=0;endArrow=none;endFill=0;" parent="1" source="zbhFBkR3SoHCSgycxK6Q-2" target="JVc2vC-KZvhllYqEc3Bq-15" edge="1">
          <mxGeometry relative="1" as="geometry">
            <mxPoint x="1112.5" y="-340" as="sourcePoint" />
            <mxPoint x="1807.5" y="-550" as="targetPoint" />
            <Array as="points">
              <mxPoint x="790" y="-330" />
              <mxPoint x="790" y="-920" />
            </Array>
          </mxGeometry>
        </mxCell>
        <mxCell id="JVc2vC-KZvhllYqEc3Bq-28" value="1..1" style="edgeLabel;html=1;align=center;verticalAlign=middle;resizable=0;points=[];" parent="JVc2vC-KZvhllYqEc3Bq-21" vertex="1" connectable="0">
          <mxGeometry x="-0.207" y="-1" relative="1" as="geometry">
            <mxPoint as="offset" />
          </mxGeometry>
        </mxCell>
        <mxCell id="zbhFBkR3SoHCSgycxK6Q-2" value="Admin&lt;br&gt;" style="whiteSpace=wrap;html=1;align=center;" parent="1" vertex="1">
          <mxGeometry x="1010" y="-349.99999999999994" width="100" height="40" as="geometry" />
        </mxCell>
        <mxCell id="J4DPUpYBy3NY0CJL0Q2O-21" style="rounded=0;orthogonalLoop=1;jettySize=auto;html=1;entryX=0;entryY=0;entryDx=0;entryDy=0;strokeWidth=2;endArrow=none;endFill=0;strokeColor=#ff00a2;" parent="1" source="zbhFBkR3SoHCSgycxK6Q-14" target="zbhFBkR3SoHCSgycxK6Q-71" edge="1">
          <mxGeometry relative="1" as="geometry">
            <Array as="points">
              <mxPoint x="1440" y="-80" />
              <mxPoint x="1570" y="-80" />
            </Array>
          </mxGeometry>
        </mxCell>
        <mxCell id="J4DPUpYBy3NY0CJL0Q2O-24" value="1" style="edgeLabel;html=1;align=center;verticalAlign=middle;resizable=0;points=[];" parent="J4DPUpYBy3NY0CJL0Q2O-21" vertex="1" connectable="0">
          <mxGeometry x="-0.9328" y="1" relative="1" as="geometry">
            <mxPoint as="offset" />
          </mxGeometry>
        </mxCell>
        <mxCell id="J4DPUpYBy3NY0CJL0Q2O-25" value="*" style="edgeLabel;html=1;align=center;verticalAlign=middle;resizable=0;points=[];" parent="J4DPUpYBy3NY0CJL0Q2O-21" vertex="1" connectable="0">
          <mxGeometry x="0.8858" y="-1" relative="1" as="geometry">
            <mxPoint as="offset" />
          </mxGeometry>
        </mxCell>
        <mxCell id="zbhFBkR3SoHCSgycxK6Q-14" value="Recepcionista&lt;br&gt;" style="whiteSpace=wrap;html=1;align=center;" parent="1" vertex="1">
          <mxGeometry x="1390" y="-410" width="100" height="40" as="geometry" />
        </mxCell>
        <mxCell id="zbhFBkR3SoHCSgycxK6Q-29" value="transportista&lt;br&gt;" style="whiteSpace=wrap;html=1;align=center;" parent="1" vertex="1">
          <mxGeometry x="1800" y="-396.25" width="100" height="40" as="geometry" />
        </mxCell>
        <mxCell id="zbhFBkR3SoHCSgycxK6Q-53" value="Categoria" style="whiteSpace=wrap;html=1;align=center;" parent="1" vertex="1">
          <mxGeometry x="1950" y="210" width="100" height="40" as="geometry" />
        </mxCell>
        <mxCell id="zbhFBkR3SoHCSgycxK6Q-55" value="nombre" style="ellipse;whiteSpace=wrap;html=1;align=center;" parent="1" vertex="1">
          <mxGeometry x="1960" y="110" width="100" height="40" as="geometry" />
        </mxCell>
        <mxCell id="zbhFBkR3SoHCSgycxK6Q-56" value="descripcion" style="ellipse;whiteSpace=wrap;html=1;align=center;" parent="1" vertex="1">
          <mxGeometry x="2060" y="146.25" width="100" height="40" as="geometry" />
        </mxCell>
        <mxCell id="zbhFBkR3SoHCSgycxK6Q-60" value="Libros&lt;br&gt;" style="whiteSpace=wrap;html=1;align=center;" parent="1" vertex="1">
          <mxGeometry x="1270" y="370" width="100" height="40" as="geometry" />
        </mxCell>
        <mxCell id="zbhFBkR3SoHCSgycxK6Q-61" value="costo" style="ellipse;whiteSpace=wrap;html=1;align=center;" parent="1" vertex="1">
          <mxGeometry x="1280" y="530" width="100" height="40" as="geometry" />
        </mxCell>
        <mxCell id="zbhFBkR3SoHCSgycxK6Q-62" value="id_categoria" style="ellipse;whiteSpace=wrap;html=1;align=center;" parent="1" vertex="1">
          <mxGeometry x="1385" y="510" width="100" height="40" as="geometry" />
        </mxCell>
        <mxCell id="zbhFBkR3SoHCSgycxK6Q-63" value="nombre" style="ellipse;whiteSpace=wrap;html=1;align=center;" parent="1" vertex="1">
          <mxGeometry x="1180" y="500" width="100" height="40" as="geometry" />
        </mxCell>
        <mxCell id="zbhFBkR3SoHCSgycxK6Q-65" value="autor" style="ellipse;whiteSpace=wrap;html=1;align=center;" parent="1" vertex="1">
          <mxGeometry x="1400" y="450" width="100" height="40" as="geometry" />
        </mxCell>
        <mxCell id="zbhFBkR3SoHCSgycxK6Q-71" value="Bibliotecas&lt;br&gt;" style="whiteSpace=wrap;html=1;align=center;" parent="1" vertex="1">
          <mxGeometry x="1570" y="20" width="100" height="40" as="geometry" />
        </mxCell>
        <mxCell id="zbhFBkR3SoHCSgycxK6Q-72" value="nombre" style="ellipse;whiteSpace=wrap;html=1;align=center;" parent="1" vertex="1">
          <mxGeometry x="1562.5" y="80" width="100" height="40" as="geometry" />
        </mxCell>
        <mxCell id="zbhFBkR3SoHCSgycxK6Q-74" value="direccion" style="ellipse;whiteSpace=wrap;html=1;align=center;" parent="1" vertex="1">
          <mxGeometry x="1662.5" y="90" width="100" height="40" as="geometry" />
        </mxCell>
        <mxCell id="J4DPUpYBy3NY0CJL0Q2O-9" style="rounded=0;orthogonalLoop=1;jettySize=auto;html=1;entryX=1;entryY=0.5;entryDx=0;entryDy=0;fillColor=#a0522d;strokeColor=#6D1F00;strokeWidth=2;endArrow=none;endFill=0;" parent="1" source="zbhFBkR3SoHCSgycxK6Q-80" target="zbhFBkR3SoHCSgycxK6Q-60" edge="1">
          <mxGeometry relative="1" as="geometry">
            <Array as="points">
              <mxPoint x="2430" y="-530" />
              <mxPoint x="2370" y="-530" />
              <mxPoint x="2310" y="-530" />
              <mxPoint x="2310" y="-140" />
              <mxPoint x="2310" y="390" />
            </Array>
          </mxGeometry>
        </mxCell>
        <mxCell id="J4DPUpYBy3NY0CJL0Q2O-31" value="*" style="edgeLabel;html=1;align=center;verticalAlign=middle;resizable=0;points=[];" parent="J4DPUpYBy3NY0CJL0Q2O-9" vertex="1" connectable="0">
          <mxGeometry x="0.9099" y="-4" relative="1" as="geometry">
            <mxPoint as="offset" />
          </mxGeometry>
        </mxCell>
        <mxCell id="J4DPUpYBy3NY0CJL0Q2O-32" value="*" style="edgeLabel;html=1;align=center;verticalAlign=middle;resizable=0;points=[];" parent="J4DPUpYBy3NY0CJL0Q2O-9" vertex="1" connectable="0">
          <mxGeometry x="-0.9526" y="-6" relative="1" as="geometry">
            <mxPoint as="offset" />
          </mxGeometry>
        </mxCell>
        <mxCell id="zbhFBkR3SoHCSgycxK6Q-80" value="Solicitudes de prestamos" style="whiteSpace=wrap;html=1;align=center;" parent="1" vertex="1">
          <mxGeometry x="2380" y="-688.81" width="100" height="40" as="geometry" />
        </mxCell>
        <mxCell id="zbhFBkR3SoHCSgycxK6Q-81" value="id_transportista" style="ellipse;whiteSpace=wrap;html=1;align=center;" parent="1" vertex="1">
          <mxGeometry x="2575" y="-688.8100000000001" width="125" height="40" as="geometry" />
        </mxCell>
        <mxCell id="zbhFBkR3SoHCSgycxK6Q-83" value="id_biblioteca" style="ellipse;whiteSpace=wrap;html=1;align=center;" parent="1" vertex="1">
          <mxGeometry x="2150" y="-760.54" width="100" height="40" as="geometry" />
        </mxCell>
        <mxCell id="zbhFBkR3SoHCSgycxK6Q-84" value="id_recepcionista" style="ellipse;whiteSpace=wrap;html=1;align=center;" parent="1" vertex="1">
          <mxGeometry x="2550" y="-630" width="140" height="40" as="geometry" />
        </mxCell>
        <mxCell id="zbhFBkR3SoHCSgycxK6Q-85" value="id_usuario" style="ellipse;whiteSpace=wrap;html=1;align=center;" parent="1" vertex="1">
          <mxGeometry x="2572.5" y="-746.19" width="100" height="40" as="geometry" />
        </mxCell>
        <mxCell id="zbhFBkR3SoHCSgycxK6Q-86" value="isbn" style="ellipse;whiteSpace=wrap;html=1;align=center;" parent="1" vertex="1">
          <mxGeometry x="2530" y="-810" width="100" height="40" as="geometry" />
        </mxCell>
        <mxCell id="zbhFBkR3SoHCSgycxK6Q-87" value="tipoEntrega" style="ellipse;whiteSpace=wrap;html=1;align=center;" parent="1" vertex="1">
          <mxGeometry x="2260" y="-844.35" width="100" height="40" as="geometry" />
        </mxCell>
        <mxCell id="zbhFBkR3SoHCSgycxK6Q-88" value="fecha" style="ellipse;whiteSpace=wrap;html=1;align=center;" parent="1" vertex="1">
          <mxGeometry x="2460" y="-867.5600000000001" width="100" height="40" as="geometry" />
        </mxCell>
        <mxCell id="zbhFBkR3SoHCSgycxK6Q-89" value="estado" style="ellipse;whiteSpace=wrap;html=1;align=center;" parent="1" vertex="1">
          <mxGeometry x="2355" y="-880" width="100" height="40" as="geometry" />
        </mxCell>
        <mxCell id="zbhFBkR3SoHCSgycxK6Q-99" value="Prestamos" style="whiteSpace=wrap;html=1;align=center;" parent="1" vertex="1">
          <mxGeometry x="1990" y="-43.81" width="100" height="40" as="geometry" />
        </mxCell>
        <mxCell id="zbhFBkR3SoHCSgycxK6Q-100" value="id_recepcionista" style="ellipse;whiteSpace=wrap;html=1;align=center;" parent="1" vertex="1">
          <mxGeometry x="1940" y="-210" width="100" height="40" as="geometry" />
        </mxCell>
        <mxCell id="zbhFBkR3SoHCSgycxK6Q-102" value="multa" style="ellipse;whiteSpace=wrap;html=1;align=center;" parent="1" vertex="1">
          <mxGeometry x="2180" y="-46.25" width="100" height="40" as="geometry" />
        </mxCell>
        <mxCell id="zbhFBkR3SoHCSgycxK6Q-103" value="id_biblioteca" style="ellipse;whiteSpace=wrap;html=1;align=center;" parent="1" vertex="1">
          <mxGeometry x="1900" y="-163.81" width="100" height="40" as="geometry" />
        </mxCell>
        <mxCell id="zbhFBkR3SoHCSgycxK6Q-104" value="estado" style="ellipse;whiteSpace=wrap;html=1;align=center;" parent="1" vertex="1">
          <mxGeometry x="2180" y="-100" width="100" height="40" as="geometry" />
        </mxCell>
        <mxCell id="zbhFBkR3SoHCSgycxK6Q-105" value="id_usuario" style="ellipse;whiteSpace=wrap;html=1;align=center;" parent="1" vertex="1">
          <mxGeometry x="2040" y="-197.56" width="100" height="40" as="geometry" />
        </mxCell>
        <mxCell id="zbhFBkR3SoHCSgycxK6Q-106" value="isbn" style="ellipse;whiteSpace=wrap;html=1;align=center;" parent="1" vertex="1">
          <mxGeometry x="2150" y="-210" width="100" height="40" as="geometry" />
        </mxCell>
        <mxCell id="zbhFBkR3SoHCSgycxK6Q-107" value="fecha" style="ellipse;whiteSpace=wrap;html=1;align=center;" parent="1" vertex="1">
          <mxGeometry x="2190" y="-163.81" width="100" height="40" as="geometry" />
        </mxCell>
        <mxCell id="J4DPUpYBy3NY0CJL0Q2O-33" style="rounded=0;orthogonalLoop=1;jettySize=auto;html=1;entryX=1;entryY=0.75;entryDx=0;entryDy=0;strokeColor=#00ff11;strokeWidth=2;endArrow=none;endFill=0;" parent="1" source="zbhFBkR3SoHCSgycxK6Q-116" target="zbhFBkR3SoHCSgycxK6Q-71" edge="1">
          <mxGeometry relative="1" as="geometry">
            <Array as="points">
              <mxPoint x="2970" y="60" />
            </Array>
          </mxGeometry>
        </mxCell>
        <mxCell id="J4DPUpYBy3NY0CJL0Q2O-35" value="*" style="edgeLabel;html=1;align=center;verticalAlign=middle;resizable=0;points=[];" parent="J4DPUpYBy3NY0CJL0Q2O-33" vertex="1" connectable="0">
          <mxGeometry x="0.954" y="-1" relative="1" as="geometry">
            <mxPoint as="offset" />
          </mxGeometry>
        </mxCell>
        <mxCell id="J4DPUpYBy3NY0CJL0Q2O-36" value="*" style="edgeLabel;html=1;align=center;verticalAlign=middle;resizable=0;points=[];" parent="J4DPUpYBy3NY0CJL0Q2O-33" vertex="1" connectable="0">
          <mxGeometry x="-0.9658" y="2" relative="1" as="geometry">
            <mxPoint y="-1" as="offset" />
          </mxGeometry>
        </mxCell>
        <mxCell id="zbhFBkR3SoHCSgycxK6Q-116" value="Transporte entre bibliotecas&lt;br&gt;" style="whiteSpace=wrap;html=1;align=center;" parent="1" vertex="1">
          <mxGeometry x="2920" y="263.81" width="100" height="40" as="geometry" />
        </mxCell>
        <mxCell id="zbhFBkR3SoHCSgycxK6Q-118" value="biblioteca origen" style="ellipse;whiteSpace=wrap;html=1;align=center;" parent="1" vertex="1">
          <mxGeometry x="2710" y="293.81" width="100" height="40" as="geometry" />
        </mxCell>
        <mxCell id="zbhFBkR3SoHCSgycxK6Q-119" value="recepcionista" style="ellipse;whiteSpace=wrap;html=1;align=center;" parent="1" vertex="1">
          <mxGeometry x="2820" y="460" width="100" height="40" as="geometry" />
        </mxCell>
        <mxCell id="zbhFBkR3SoHCSgycxK6Q-120" value="id_transportista" style="ellipse;whiteSpace=wrap;html=1;align=center;" parent="1" vertex="1">
          <mxGeometry x="2920" y="403.81" width="100" height="40" as="geometry" />
        </mxCell>
        <mxCell id="zbhFBkR3SoHCSgycxK6Q-121" value="fecha" style="ellipse;whiteSpace=wrap;html=1;align=center;" parent="1" vertex="1">
          <mxGeometry x="3030" y="373.81" width="100" height="40" as="geometry" />
        </mxCell>
        <mxCell id="zbhFBkR3SoHCSgycxK6Q-122" value="estado" style="ellipse;whiteSpace=wrap;html=1;align=center;" parent="1" vertex="1">
          <mxGeometry x="3090" y="323.81" width="100" height="40" as="geometry" />
        </mxCell>
        <mxCell id="zbhFBkR3SoHCSgycxK6Q-123" value="detalle" style="ellipse;whiteSpace=wrap;html=1;align=center;" parent="1" vertex="1">
          <mxGeometry x="3090" y="243.81" width="100" height="40" as="geometry" />
        </mxCell>
        <mxCell id="J4DPUpYBy3NY0CJL0Q2O-2" style="rounded=0;orthogonalLoop=1;jettySize=auto;html=1;entryX=1;entryY=0.25;entryDx=0;entryDy=0;strokeWidth=2;fillColor=#f8cecc;strokeColor=#b85450;endArrow=none;endFill=0;exitX=0;exitY=0.5;exitDx=0;exitDy=0;" parent="1" source="zbhFBkR3SoHCSgycxK6Q-131" target="zbhFBkR3SoHCSgycxK6Q-71" edge="1">
          <mxGeometry relative="1" as="geometry">
            <Array as="points">
              <mxPoint x="2400" y="-318" />
              <mxPoint x="2400" y="30" />
            </Array>
          </mxGeometry>
        </mxCell>
        <mxCell id="zbhFBkR3SoHCSgycxK6Q-131" value="Transporte a usuarios" style="whiteSpace=wrap;html=1;align=center;" parent="1" vertex="1">
          <mxGeometry x="2890" y="-337.56" width="100" height="40" as="geometry" />
        </mxCell>
        <mxCell id="zbhFBkR3SoHCSgycxK6Q-133" value="isbn" style="ellipse;whiteSpace=wrap;html=1;align=center;" parent="1" vertex="1">
          <mxGeometry x="3110" y="-370" width="100" height="40" as="geometry" />
        </mxCell>
        <mxCell id="zbhFBkR3SoHCSgycxK6Q-134" value="estado" style="ellipse;whiteSpace=wrap;html=1;align=center;" parent="1" vertex="1">
          <mxGeometry x="3090" y="-437.56" width="100" height="40" as="geometry" />
        </mxCell>
        <mxCell id="zbhFBkR3SoHCSgycxK6Q-135" value="fecha" style="ellipse;whiteSpace=wrap;html=1;align=center;" parent="1" vertex="1">
          <mxGeometry x="3100" y="-498.75" width="100" height="40" as="geometry" />
        </mxCell>
        <mxCell id="zbhFBkR3SoHCSgycxK6Q-136" value="id_transportista" style="ellipse;whiteSpace=wrap;html=1;align=center;" parent="1" vertex="1">
          <mxGeometry x="3030" y="-540" width="100" height="40" as="geometry" />
        </mxCell>
        <mxCell id="zbhFBkR3SoHCSgycxK6Q-137" value="id_biblioteca" style="ellipse;whiteSpace=wrap;html=1;align=center;" parent="1" vertex="1">
          <mxGeometry x="3040" y="-237.56" width="100" height="40" as="geometry" />
        </mxCell>
        <mxCell id="zbhFBkR3SoHCSgycxK6Q-138" value="id_usuario" style="ellipse;whiteSpace=wrap;html=1;align=center;" parent="1" vertex="1">
          <mxGeometry x="2820" y="-507.56" width="100" height="40" as="geometry" />
        </mxCell>
        <mxCell id="zbhFBkR3SoHCSgycxK6Q-147" value="incidencia" style="whiteSpace=wrap;html=1;align=center;" parent="1" vertex="1">
          <mxGeometry x="2190" y="610.28" width="100" height="40" as="geometry" />
        </mxCell>
        <mxCell id="zbhFBkR3SoHCSgycxK6Q-148" value="id_prestamos" style="ellipse;whiteSpace=wrap;html=1;align=center;" parent="1" vertex="1">
          <mxGeometry x="2050" y="630.28" width="100" height="40" as="geometry" />
        </mxCell>
        <mxCell id="zbhFBkR3SoHCSgycxK6Q-150" value="cantidadPagada" style="ellipse;whiteSpace=wrap;html=1;align=center;" parent="1" vertex="1">
          <mxGeometry x="2340" y="630.28" width="100" height="40" as="geometry" />
        </mxCell>
        <mxCell id="zbhFBkR3SoHCSgycxK6Q-151" value="tipo" style="ellipse;whiteSpace=wrap;html=1;align=center;" parent="1" vertex="1">
          <mxGeometry x="2317.5" y="710.28" width="100" height="40" as="geometry" />
        </mxCell>
        <mxCell id="zbhFBkR3SoHCSgycxK6Q-156" value="quitar suspención&lt;br&gt;" style="whiteSpace=wrap;html=1;align=center;" parent="1" vertex="1">
          <mxGeometry x="1112.5" y="-810" width="100" height="40" as="geometry" />
        </mxCell>
        <mxCell id="zbhFBkR3SoHCSgycxK6Q-158" value="id_usuario" style="ellipse;whiteSpace=wrap;html=1;align=center;" parent="1" vertex="1">
          <mxGeometry x="1225" y="-716.19" width="100" height="40" as="geometry" />
        </mxCell>
        <mxCell id="zbhFBkR3SoHCSgycxK6Q-159" value="estado" style="ellipse;whiteSpace=wrap;html=1;align=center;" parent="1" vertex="1">
          <mxGeometry x="1122.5" y="-716.19" width="100" height="40" as="geometry" />
        </mxCell>
        <mxCell id="zbhFBkR3SoHCSgycxK6Q-160" value="detalle" style="ellipse;whiteSpace=wrap;html=1;align=center;" parent="1" vertex="1">
          <mxGeometry x="932.5" y="-743.75" width="100" height="40" as="geometry" />
        </mxCell>
        <mxCell id="CRF2aO77LpoMdEhG8NDk-1" value="clasificar" style="shape=rhombus;perimeter=rhombusPerimeter;whiteSpace=wrap;html=1;align=center;" parent="1" vertex="1">
          <mxGeometry x="1940" y="320.1" width="120" height="60" as="geometry" />
        </mxCell>
        <mxCell id="CRF2aO77LpoMdEhG8NDk-14" value="1..*" style="text;strokeColor=none;fillColor=none;spacingLeft=4;spacingRight=4;overflow=hidden;rotatable=0;points=[[0,0.5],[1,0.5]];portConstraint=eastwest;fontSize=12;whiteSpace=wrap;html=1;" parent="1" vertex="1">
          <mxGeometry x="2010" y="305.1" width="40" height="35" as="geometry" />
        </mxCell>
        <mxCell id="CRF2aO77LpoMdEhG8NDk-15" value="Libreria" style="shape=associativeEntity;whiteSpace=wrap;html=1;align=center;" parent="1" vertex="1">
          <mxGeometry x="1267.5" y="110" width="125" height="50" as="geometry" />
        </mxCell>
        <mxCell id="CRF2aO77LpoMdEhG8NDk-17" value="ISBN" style="ellipse;whiteSpace=wrap;html=1;align=center;fontStyle=4;" parent="1" vertex="1">
          <mxGeometry x="1130" y="440" width="100" height="40" as="geometry" />
        </mxCell>
        <mxCell id="CRF2aO77LpoMdEhG8NDk-21" value="id_categoria" style="ellipse;whiteSpace=wrap;html=1;align=center;fontStyle=4;" parent="1" vertex="1">
          <mxGeometry x="1850" y="140" width="100" height="40" as="geometry" />
        </mxCell>
        <mxCell id="CRF2aO77LpoMdEhG8NDk-25" value="id_biblioteca" style="ellipse;whiteSpace=wrap;html=1;align=center;fontStyle=4;" parent="1" vertex="1">
          <mxGeometry x="1430" y="28.37" width="100" height="40" as="geometry" />
        </mxCell>
        <mxCell id="CRF2aO77LpoMdEhG8NDk-27" value="existencia" style="ellipse;whiteSpace=wrap;html=1;align=center;" parent="1" vertex="1">
          <mxGeometry x="1100" y="180" width="100" height="40" as="geometry" />
        </mxCell>
        <mxCell id="CRF2aO77LpoMdEhG8NDk-28" value="isbn" style="ellipse;whiteSpace=wrap;html=1;align=center;fontStyle=4;" parent="1" vertex="1">
          <mxGeometry x="1100" y="80" width="100" height="40" as="geometry" />
        </mxCell>
        <mxCell id="CRF2aO77LpoMdEhG8NDk-29" value="id_biblioteca" style="ellipse;whiteSpace=wrap;html=1;align=center;fontStyle=4;" parent="1" vertex="1">
          <mxGeometry x="1100" y="130" width="100" height="40" as="geometry" />
        </mxCell>
        <mxCell id="CRF2aO77LpoMdEhG8NDk-37" value="*..1" style="text;strokeColor=none;fillColor=none;spacingLeft=4;spacingRight=4;overflow=hidden;rotatable=0;points=[[0,0.5],[1,0.5]];portConstraint=eastwest;fontSize=12;whiteSpace=wrap;html=1;" parent="1" vertex="1">
          <mxGeometry x="1312.5" y="90" width="40" height="20" as="geometry" />
        </mxCell>
        <mxCell id="CRF2aO77LpoMdEhG8NDk-41" value="id_prestamos" style="ellipse;whiteSpace=wrap;html=1;align=center;fontStyle=4;" parent="1" vertex="1">
          <mxGeometry x="1840" y="-123.81" width="110" height="40" as="geometry" />
        </mxCell>
        <mxCell id="CRF2aO77LpoMdEhG8NDk-43" value="prestar" style="shape=rhombus;perimeter=rhombusPerimeter;whiteSpace=wrap;html=1;align=center;" parent="1" vertex="1">
          <mxGeometry x="1760" y="-29.759999999999998" width="120" height="60" as="geometry" />
        </mxCell>
        <mxCell id="CRF2aO77LpoMdEhG8NDk-49" value="1..*" style="text;strokeColor=none;fillColor=none;spacingLeft=4;spacingRight=4;overflow=hidden;rotatable=0;points=[[0,0.5],[1,0.5]];portConstraint=eastwest;fontSize=12;whiteSpace=wrap;html=1;" parent="1" vertex="1">
          <mxGeometry x="1805" y="-53.51" width="40" height="30" as="geometry" />
        </mxCell>
        <mxCell id="JVc2vC-KZvhllYqEc3Bq-1" value="Usuario final" style="whiteSpace=wrap;html=1;align=center;" parent="1" vertex="1">
          <mxGeometry x="1610" y="-703.7499999999998" width="100" height="40" as="geometry" />
        </mxCell>
        <mxCell id="JVc2vC-KZvhllYqEc3Bq-3" value="nombre" style="ellipse;whiteSpace=wrap;html=1;align=center;" parent="1" vertex="1">
          <mxGeometry x="1530" y="-1300" width="100" height="40" as="geometry" />
        </mxCell>
        <mxCell id="JVc2vC-KZvhllYqEc3Bq-4" value="email" style="ellipse;whiteSpace=wrap;html=1;align=center;" parent="1" vertex="1">
          <mxGeometry x="1730" y="-1200" width="100" height="40" as="geometry" />
        </mxCell>
        <mxCell id="JVc2vC-KZvhllYqEc3Bq-5" value="contraseña" style="ellipse;whiteSpace=wrap;html=1;align=center;" parent="1" vertex="1">
          <mxGeometry x="1695" y="-1290" width="100" height="40" as="geometry" />
        </mxCell>
        <mxCell id="JVc2vC-KZvhllYqEc3Bq-6" value="username" style="ellipse;whiteSpace=wrap;html=1;align=center;" parent="1" vertex="1">
          <mxGeometry x="1370" y="-1250" width="100" height="40" as="geometry" />
        </mxCell>
        <mxCell id="JVc2vC-KZvhllYqEc3Bq-15" value="es" style="shape=rhombus;perimeter=rhombusPerimeter;whiteSpace=wrap;html=1;align=center;" parent="1" vertex="1">
          <mxGeometry x="1540" y="-950" width="120" height="60" as="geometry" />
        </mxCell>
        <mxCell id="JVc2vC-KZvhllYqEc3Bq-26" value="id_usuario" style="ellipse;whiteSpace=wrap;html=1;align=center;fontStyle=4;" parent="1" vertex="1">
          <mxGeometry x="1600" y="-610" width="100" height="40" as="geometry" />
        </mxCell>
        <mxCell id="JVc2vC-KZvhllYqEc3Bq-41" value="actualizar" style="shape=rhombus;perimeter=rhombusPerimeter;whiteSpace=wrap;html=1;align=center;" parent="1" vertex="1">
          <mxGeometry x="1030" y="-23.939999999999998" width="120" height="60" as="geometry" />
        </mxCell>
        <mxCell id="JVc2vC-KZvhllYqEc3Bq-44" value="" style="endArrow=none;html=1;rounded=0;exitX=0.5;exitY=1;exitDx=0;exitDy=0;entryX=0;entryY=0;entryDx=0;entryDy=0;fillColor=#fff2cc;strokeColor=#d6b656;strokeWidth=2;" parent="1" source="zbhFBkR3SoHCSgycxK6Q-2" target="JVc2vC-KZvhllYqEc3Bq-41" edge="1">
          <mxGeometry relative="1" as="geometry">
            <mxPoint x="1350" y="-260" as="sourcePoint" />
            <mxPoint x="1510" y="-260" as="targetPoint" />
          </mxGeometry>
        </mxCell>
        <mxCell id="JVc2vC-KZvhllYqEc3Bq-103" value="1" style="edgeLabel;html=1;align=center;verticalAlign=middle;resizable=0;points=[];" parent="JVc2vC-KZvhllYqEc3Bq-44" vertex="1" connectable="0">
          <mxGeometry x="-0.8382" y="-1" relative="1" as="geometry">
            <mxPoint as="offset" />
          </mxGeometry>
        </mxCell>
        <mxCell id="JVc2vC-KZvhllYqEc3Bq-45" value="" style="endArrow=none;html=1;rounded=0;exitX=1;exitY=1;exitDx=0;exitDy=0;fillColor=#fff2cc;strokeColor=#d6b656;strokeWidth=2;" parent="1" source="JVc2vC-KZvhllYqEc3Bq-41" edge="1">
          <mxGeometry relative="1" as="geometry">
            <mxPoint x="1350" y="-100" as="sourcePoint" />
            <mxPoint x="1570" y="20" as="targetPoint" />
          </mxGeometry>
        </mxCell>
        <mxCell id="JVc2vC-KZvhllYqEc3Bq-106" value="&lt;br&gt;*" style="edgeLabel;html=1;align=center;verticalAlign=middle;resizable=0;points=[];" parent="JVc2vC-KZvhllYqEc3Bq-45" vertex="1" connectable="0">
          <mxGeometry x="0.8405" y="1" relative="1" as="geometry">
            <mxPoint x="2" y="-3" as="offset" />
          </mxGeometry>
        </mxCell>
        <mxCell id="JVc2vC-KZvhllYqEc3Bq-46" value="" style="endArrow=none;html=1;rounded=0;exitX=0.5;exitY=1;exitDx=0;exitDy=0;entryX=0;entryY=0;entryDx=0;entryDy=0;" parent="1" source="CRF2aO77LpoMdEhG8NDk-21" target="zbhFBkR3SoHCSgycxK6Q-53" edge="1">
          <mxGeometry relative="1" as="geometry">
            <mxPoint x="2120" y="246.25" as="sourcePoint" />
            <mxPoint x="2280" y="246.25" as="targetPoint" />
          </mxGeometry>
        </mxCell>
        <mxCell id="JVc2vC-KZvhllYqEc3Bq-47" value="" style="endArrow=none;html=1;rounded=0;exitX=0.5;exitY=1;exitDx=0;exitDy=0;entryX=0.5;entryY=0;entryDx=0;entryDy=0;" parent="1" source="zbhFBkR3SoHCSgycxK6Q-55" target="zbhFBkR3SoHCSgycxK6Q-53" edge="1">
          <mxGeometry relative="1" as="geometry">
            <mxPoint x="2120" y="246.25" as="sourcePoint" />
            <mxPoint x="2280" y="246.25" as="targetPoint" />
          </mxGeometry>
        </mxCell>
        <mxCell id="JVc2vC-KZvhllYqEc3Bq-48" value="" style="endArrow=none;html=1;rounded=0;exitX=0.5;exitY=1;exitDx=0;exitDy=0;entryX=1;entryY=0;entryDx=0;entryDy=0;" parent="1" source="zbhFBkR3SoHCSgycxK6Q-56" target="zbhFBkR3SoHCSgycxK6Q-53" edge="1">
          <mxGeometry relative="1" as="geometry">
            <mxPoint x="2120" y="246.25" as="sourcePoint" />
            <mxPoint x="2280" y="246.25" as="targetPoint" />
          </mxGeometry>
        </mxCell>
        <mxCell id="JVc2vC-KZvhllYqEc3Bq-49" value="" style="endArrow=none;html=1;rounded=0;exitX=0;exitY=1;exitDx=0;exitDy=0;entryX=1;entryY=0;entryDx=0;entryDy=0;" parent="1" source="zbhFBkR3SoHCSgycxK6Q-60" target="CRF2aO77LpoMdEhG8NDk-17" edge="1">
          <mxGeometry relative="1" as="geometry">
            <mxPoint x="1390" y="400" as="sourcePoint" />
            <mxPoint x="1550" y="400" as="targetPoint" />
          </mxGeometry>
        </mxCell>
        <mxCell id="JVc2vC-KZvhllYqEc3Bq-50" value="" style="endArrow=none;html=1;rounded=0;exitX=0.25;exitY=1;exitDx=0;exitDy=0;entryX=0.5;entryY=0;entryDx=0;entryDy=0;" parent="1" source="zbhFBkR3SoHCSgycxK6Q-60" target="zbhFBkR3SoHCSgycxK6Q-63" edge="1">
          <mxGeometry relative="1" as="geometry">
            <mxPoint x="1390" y="400" as="sourcePoint" />
            <mxPoint x="1550" y="400" as="targetPoint" />
          </mxGeometry>
        </mxCell>
        <mxCell id="JVc2vC-KZvhllYqEc3Bq-51" value="" style="endArrow=none;html=1;rounded=0;exitX=0.5;exitY=1;exitDx=0;exitDy=0;entryX=0.5;entryY=0;entryDx=0;entryDy=0;" parent="1" source="zbhFBkR3SoHCSgycxK6Q-60" target="zbhFBkR3SoHCSgycxK6Q-61" edge="1">
          <mxGeometry relative="1" as="geometry">
            <mxPoint x="1390" y="400" as="sourcePoint" />
            <mxPoint x="1550" y="400" as="targetPoint" />
          </mxGeometry>
        </mxCell>
        <mxCell id="JVc2vC-KZvhllYqEc3Bq-52" value="" style="endArrow=none;html=1;rounded=0;exitX=0.75;exitY=1;exitDx=0;exitDy=0;entryX=0;entryY=0;entryDx=0;entryDy=0;" parent="1" source="zbhFBkR3SoHCSgycxK6Q-60" target="zbhFBkR3SoHCSgycxK6Q-62" edge="1">
          <mxGeometry relative="1" as="geometry">
            <mxPoint x="1390" y="400" as="sourcePoint" />
            <mxPoint x="1550" y="400" as="targetPoint" />
          </mxGeometry>
        </mxCell>
        <mxCell id="JVc2vC-KZvhllYqEc3Bq-53" value="" style="endArrow=none;html=1;rounded=0;exitX=1;exitY=1;exitDx=0;exitDy=0;entryX=0.5;entryY=0;entryDx=0;entryDy=0;" parent="1" source="zbhFBkR3SoHCSgycxK6Q-60" target="zbhFBkR3SoHCSgycxK6Q-65" edge="1">
          <mxGeometry relative="1" as="geometry">
            <mxPoint x="1390" y="400" as="sourcePoint" />
            <mxPoint x="1550" y="400" as="targetPoint" />
          </mxGeometry>
        </mxCell>
        <mxCell id="JVc2vC-KZvhllYqEc3Bq-55" value="" style="endArrow=none;html=1;rounded=0;exitX=0;exitY=0.5;exitDx=0;exitDy=0;entryX=1;entryY=0.5;entryDx=0;entryDy=0;" parent="1" source="CRF2aO77LpoMdEhG8NDk-15" target="CRF2aO77LpoMdEhG8NDk-29" edge="1">
          <mxGeometry relative="1" as="geometry">
            <mxPoint x="1222.5" y="200" as="sourcePoint" />
            <mxPoint x="1382.5" y="200" as="targetPoint" />
          </mxGeometry>
        </mxCell>
        <mxCell id="JVc2vC-KZvhllYqEc3Bq-56" value="" style="endArrow=none;html=1;rounded=0;exitX=0;exitY=0;exitDx=0;exitDy=0;entryX=1;entryY=0.5;entryDx=0;entryDy=0;" parent="1" source="CRF2aO77LpoMdEhG8NDk-15" target="CRF2aO77LpoMdEhG8NDk-28" edge="1">
          <mxGeometry relative="1" as="geometry">
            <mxPoint x="1222.5" y="200" as="sourcePoint" />
            <mxPoint x="1382.5" y="200" as="targetPoint" />
          </mxGeometry>
        </mxCell>
        <mxCell id="JVc2vC-KZvhllYqEc3Bq-57" value="" style="endArrow=none;html=1;rounded=0;exitX=0;exitY=1;exitDx=0;exitDy=0;entryX=1;entryY=0.5;entryDx=0;entryDy=0;" parent="1" source="CRF2aO77LpoMdEhG8NDk-15" target="CRF2aO77LpoMdEhG8NDk-27" edge="1">
          <mxGeometry relative="1" as="geometry">
            <mxPoint x="1222.5" y="200" as="sourcePoint" />
            <mxPoint x="1382.5" y="200" as="targetPoint" />
          </mxGeometry>
        </mxCell>
        <mxCell id="JVc2vC-KZvhllYqEc3Bq-58" value="" style="endArrow=none;html=1;rounded=0;entryX=0.5;entryY=0;entryDx=0;entryDy=0;exitX=0.5;exitY=1;exitDx=0;exitDy=0;" parent="1" source="zbhFBkR3SoHCSgycxK6Q-71" target="zbhFBkR3SoHCSgycxK6Q-72" edge="1">
          <mxGeometry relative="1" as="geometry">
            <mxPoint x="1350" y="-10" as="sourcePoint" />
            <mxPoint x="1510" y="-10" as="targetPoint" />
          </mxGeometry>
        </mxCell>
        <mxCell id="JVc2vC-KZvhllYqEc3Bq-59" value="" style="endArrow=none;html=1;rounded=0;entryX=0.5;entryY=0;entryDx=0;entryDy=0;exitX=1;exitY=1;exitDx=0;exitDy=0;" parent="1" source="zbhFBkR3SoHCSgycxK6Q-71" target="zbhFBkR3SoHCSgycxK6Q-74" edge="1">
          <mxGeometry relative="1" as="geometry">
            <mxPoint x="1350" y="-10" as="sourcePoint" />
            <mxPoint x="1510" y="-10" as="targetPoint" />
          </mxGeometry>
        </mxCell>
        <mxCell id="JVc2vC-KZvhllYqEc3Bq-60" value="" style="endArrow=none;html=1;rounded=0;entryX=0.5;entryY=0;entryDx=0;entryDy=0;exitX=1;exitY=0.5;exitDx=0;exitDy=0;" parent="1" target="zbhFBkR3SoHCSgycxK6Q-80" edge="1">
          <mxGeometry relative="1" as="geometry">
            <mxPoint x="2289.9999999999995" y="-784.3499999999999" as="sourcePoint" />
            <mxPoint x="2485" y="-628.81" as="targetPoint" />
          </mxGeometry>
        </mxCell>
        <mxCell id="JVc2vC-KZvhllYqEc3Bq-61" value="" style="endArrow=none;html=1;rounded=0;entryX=0.5;entryY=0;entryDx=0;entryDy=0;exitX=1;exitY=0.5;exitDx=0;exitDy=0;" parent="1" source="zbhFBkR3SoHCSgycxK6Q-83" target="zbhFBkR3SoHCSgycxK6Q-80" edge="1">
          <mxGeometry relative="1" as="geometry">
            <mxPoint x="2325" y="-628.81" as="sourcePoint" />
            <mxPoint x="2485" y="-628.81" as="targetPoint" />
          </mxGeometry>
        </mxCell>
        <mxCell id="JVc2vC-KZvhllYqEc3Bq-62" value="" style="endArrow=none;html=1;rounded=0;entryX=1;entryY=1;entryDx=0;entryDy=0;exitX=0;exitY=0;exitDx=0;exitDy=0;" parent="1" source="zbhFBkR3SoHCSgycxK6Q-84" target="zbhFBkR3SoHCSgycxK6Q-80" edge="1">
          <mxGeometry relative="1" as="geometry">
            <mxPoint x="2325" y="-628.81" as="sourcePoint" />
            <mxPoint x="2485" y="-628.81" as="targetPoint" />
          </mxGeometry>
        </mxCell>
        <mxCell id="JVc2vC-KZvhllYqEc3Bq-63" value="" style="endArrow=none;html=1;rounded=0;entryX=1;entryY=0.75;entryDx=0;entryDy=0;exitX=0;exitY=0.5;exitDx=0;exitDy=0;" parent="1" source="zbhFBkR3SoHCSgycxK6Q-81" target="zbhFBkR3SoHCSgycxK6Q-80" edge="1">
          <mxGeometry relative="1" as="geometry">
            <mxPoint x="2580" y="-681" as="sourcePoint" />
            <mxPoint x="2485" y="-628.81" as="targetPoint" />
          </mxGeometry>
        </mxCell>
        <mxCell id="JVc2vC-KZvhllYqEc3Bq-64" value="" style="endArrow=none;html=1;rounded=0;entryX=1.011;entryY=0.348;entryDx=0;entryDy=0;exitX=0;exitY=1;exitDx=0;exitDy=0;entryPerimeter=0;" parent="1" source="zbhFBkR3SoHCSgycxK6Q-85" target="zbhFBkR3SoHCSgycxK6Q-80" edge="1">
          <mxGeometry relative="1" as="geometry">
            <mxPoint x="2325" y="-628.81" as="sourcePoint" />
            <mxPoint x="2485" y="-628.81" as="targetPoint" />
          </mxGeometry>
        </mxCell>
        <mxCell id="JVc2vC-KZvhllYqEc3Bq-65" value="" style="endArrow=none;html=1;rounded=0;exitX=0;exitY=1;exitDx=0;exitDy=0;entryX=1;entryY=0;entryDx=0;entryDy=0;" parent="1" source="zbhFBkR3SoHCSgycxK6Q-86" target="zbhFBkR3SoHCSgycxK6Q-80" edge="1">
          <mxGeometry relative="1" as="geometry">
            <mxPoint x="2325" y="-628.81" as="sourcePoint" />
            <mxPoint x="2480" y="-690" as="targetPoint" />
          </mxGeometry>
        </mxCell>
        <mxCell id="JVc2vC-KZvhllYqEc3Bq-66" value="" style="endArrow=none;html=1;rounded=0;entryX=0.844;entryY=0.017;entryDx=0;entryDy=0;entryPerimeter=0;" parent="1" source="zbhFBkR3SoHCSgycxK6Q-88" target="zbhFBkR3SoHCSgycxK6Q-80" edge="1">
          <mxGeometry relative="1" as="geometry">
            <mxPoint x="2325" y="-628.81" as="sourcePoint" />
            <mxPoint x="2485" y="-628.81" as="targetPoint" />
          </mxGeometry>
        </mxCell>
        <mxCell id="JVc2vC-KZvhllYqEc3Bq-67" value="" style="endArrow=none;html=1;rounded=0;entryX=0.75;entryY=0;entryDx=0;entryDy=0;exitX=0.5;exitY=1;exitDx=0;exitDy=0;" parent="1" source="zbhFBkR3SoHCSgycxK6Q-89" target="zbhFBkR3SoHCSgycxK6Q-80" edge="1">
          <mxGeometry relative="1" as="geometry">
            <mxPoint x="2325" y="-628.81" as="sourcePoint" />
            <mxPoint x="2485" y="-628.81" as="targetPoint" />
          </mxGeometry>
        </mxCell>
        <mxCell id="JVc2vC-KZvhllYqEc3Bq-68" value="" style="endArrow=none;html=1;rounded=0;entryX=0.75;entryY=0;entryDx=0;entryDy=0;exitX=1;exitY=1;exitDx=0;exitDy=0;" parent="1" source="zbhFBkR3SoHCSgycxK6Q-87" target="zbhFBkR3SoHCSgycxK6Q-80" edge="1">
          <mxGeometry relative="1" as="geometry">
            <mxPoint x="2325" y="-628.81" as="sourcePoint" />
            <mxPoint x="2485" y="-628.81" as="targetPoint" />
          </mxGeometry>
        </mxCell>
        <mxCell id="JVc2vC-KZvhllYqEc3Bq-69" value="" style="endArrow=none;html=1;rounded=0;exitX=1;exitY=0.5;exitDx=0;exitDy=0;entryX=0;entryY=0;entryDx=0;entryDy=0;" parent="1" target="zbhFBkR3SoHCSgycxK6Q-116" edge="1">
          <mxGeometry relative="1" as="geometry">
            <mxPoint x="2839.999999999971" y="263.81" as="sourcePoint" />
            <mxPoint x="3130" y="343.81" as="targetPoint" />
          </mxGeometry>
        </mxCell>
        <mxCell id="JVc2vC-KZvhllYqEc3Bq-70" value="" style="endArrow=none;html=1;rounded=0;exitX=0;exitY=0.5;exitDx=0;exitDy=0;entryX=1;entryY=0.5;entryDx=0;entryDy=0;" parent="1" source="zbhFBkR3SoHCSgycxK6Q-116" target="zbhFBkR3SoHCSgycxK6Q-118" edge="1">
          <mxGeometry relative="1" as="geometry">
            <mxPoint x="2970" y="343.81" as="sourcePoint" />
            <mxPoint x="3130" y="343.81" as="targetPoint" />
          </mxGeometry>
        </mxCell>
        <mxCell id="JVc2vC-KZvhllYqEc3Bq-72" value="" style="endArrow=none;html=1;rounded=0;exitX=0.25;exitY=1;exitDx=0;exitDy=0;entryX=1;entryY=0;entryDx=0;entryDy=0;" parent="1" source="zbhFBkR3SoHCSgycxK6Q-116" target="zbhFBkR3SoHCSgycxK6Q-119" edge="1">
          <mxGeometry relative="1" as="geometry">
            <mxPoint x="2970" y="343.81" as="sourcePoint" />
            <mxPoint x="3130" y="343.81" as="targetPoint" />
          </mxGeometry>
        </mxCell>
        <mxCell id="JVc2vC-KZvhllYqEc3Bq-73" value="" style="endArrow=none;html=1;rounded=0;exitX=0.5;exitY=1;exitDx=0;exitDy=0;entryX=0.5;entryY=0;entryDx=0;entryDy=0;" parent="1" source="zbhFBkR3SoHCSgycxK6Q-116" target="zbhFBkR3SoHCSgycxK6Q-120" edge="1">
          <mxGeometry relative="1" as="geometry">
            <mxPoint x="2970" y="343.81" as="sourcePoint" />
            <mxPoint x="3130" y="343.81" as="targetPoint" />
          </mxGeometry>
        </mxCell>
        <mxCell id="JVc2vC-KZvhllYqEc3Bq-74" value="" style="endArrow=none;html=1;rounded=0;exitX=0.75;exitY=1;exitDx=0;exitDy=0;entryX=0;entryY=0;entryDx=0;entryDy=0;" parent="1" source="zbhFBkR3SoHCSgycxK6Q-116" target="zbhFBkR3SoHCSgycxK6Q-121" edge="1">
          <mxGeometry relative="1" as="geometry">
            <mxPoint x="2970" y="343.81" as="sourcePoint" />
            <mxPoint x="3130" y="343.81" as="targetPoint" />
          </mxGeometry>
        </mxCell>
        <mxCell id="JVc2vC-KZvhllYqEc3Bq-75" value="" style="endArrow=none;html=1;rounded=0;exitX=1;exitY=1;exitDx=0;exitDy=0;entryX=0;entryY=0;entryDx=0;entryDy=0;" parent="1" source="zbhFBkR3SoHCSgycxK6Q-116" target="zbhFBkR3SoHCSgycxK6Q-122" edge="1">
          <mxGeometry relative="1" as="geometry">
            <mxPoint x="2970" y="343.81" as="sourcePoint" />
            <mxPoint x="3130" y="343.81" as="targetPoint" />
          </mxGeometry>
        </mxCell>
        <mxCell id="JVc2vC-KZvhllYqEc3Bq-76" value="" style="endArrow=none;html=1;rounded=0;exitX=1;exitY=0.25;exitDx=0;exitDy=0;entryX=0;entryY=0.5;entryDx=0;entryDy=0;" parent="1" source="zbhFBkR3SoHCSgycxK6Q-116" target="zbhFBkR3SoHCSgycxK6Q-123" edge="1">
          <mxGeometry relative="1" as="geometry">
            <mxPoint x="2970" y="343.81" as="sourcePoint" />
            <mxPoint x="3130" y="343.81" as="targetPoint" />
          </mxGeometry>
        </mxCell>
        <mxCell id="JVc2vC-KZvhllYqEc3Bq-77" value="" style="endArrow=none;html=1;rounded=0;exitX=1;exitY=0.5;exitDx=0;exitDy=0;entryX=0;entryY=0;entryDx=0;entryDy=0;" parent="1" source="zbhFBkR3SoHCSgycxK6Q-147" target="zbhFBkR3SoHCSgycxK6Q-150" edge="1">
          <mxGeometry relative="1" as="geometry">
            <mxPoint x="2380" y="690.28" as="sourcePoint" />
            <mxPoint x="2540" y="690.28" as="targetPoint" />
          </mxGeometry>
        </mxCell>
        <mxCell id="JVc2vC-KZvhllYqEc3Bq-78" value="" style="endArrow=none;html=1;rounded=0;exitX=0;exitY=0.25;exitDx=0;exitDy=0;entryX=1;entryY=0;entryDx=0;entryDy=0;" parent="1" source="zbhFBkR3SoHCSgycxK6Q-147" edge="1">
          <mxGeometry relative="1" as="geometry">
            <mxPoint x="2380" y="690.28" as="sourcePoint" />
            <mxPoint x="2135.3553390593274" y="636.1378643762687" as="targetPoint" />
          </mxGeometry>
        </mxCell>
        <mxCell id="JVc2vC-KZvhllYqEc3Bq-79" value="" style="endArrow=none;html=1;rounded=0;exitX=0.25;exitY=1;exitDx=0;exitDy=0;entryX=1;entryY=0;entryDx=0;entryDy=0;" parent="1" source="zbhFBkR3SoHCSgycxK6Q-147" edge="1">
          <mxGeometry relative="1" as="geometry">
            <mxPoint x="2380" y="690.28" as="sourcePoint" />
            <mxPoint x="2157.8553390593274" y="716.1378643762691" as="targetPoint" />
          </mxGeometry>
        </mxCell>
        <mxCell id="JVc2vC-KZvhllYqEc3Bq-80" value="" style="endArrow=none;html=1;rounded=0;exitX=0.75;exitY=1;exitDx=0;exitDy=0;entryX=0.5;entryY=0;entryDx=0;entryDy=0;" parent="1" source="zbhFBkR3SoHCSgycxK6Q-147" target="zbhFBkR3SoHCSgycxK6Q-151" edge="1">
          <mxGeometry relative="1" as="geometry">
            <mxPoint x="2380" y="690.28" as="sourcePoint" />
            <mxPoint x="2540" y="690.28" as="targetPoint" />
          </mxGeometry>
        </mxCell>
        <mxCell id="JVc2vC-KZvhllYqEc3Bq-81" value="" style="endArrow=none;html=1;rounded=0;entryX=0.5;entryY=0;entryDx=0;entryDy=0;exitX=0;exitY=0.5;exitDx=0;exitDy=0;" parent="1" source="zbhFBkR3SoHCSgycxK6Q-156" target="zbhFBkR3SoHCSgycxK6Q-160" edge="1">
          <mxGeometry relative="1" as="geometry">
            <mxPoint x="882.5" y="-760" as="sourcePoint" />
            <mxPoint x="1042.5" y="-760" as="targetPoint" />
          </mxGeometry>
        </mxCell>
        <mxCell id="JVc2vC-KZvhllYqEc3Bq-82" value="" style="endArrow=none;html=1;rounded=0;entryX=0.5;entryY=0;entryDx=0;entryDy=0;exitX=0.5;exitY=1;exitDx=0;exitDy=0;" parent="1" source="zbhFBkR3SoHCSgycxK6Q-156" target="zbhFBkR3SoHCSgycxK6Q-159" edge="1">
          <mxGeometry relative="1" as="geometry">
            <mxPoint x="882.5" y="-760" as="sourcePoint" />
            <mxPoint x="1042.5" y="-760" as="targetPoint" />
          </mxGeometry>
        </mxCell>
        <mxCell id="JVc2vC-KZvhllYqEc3Bq-83" value="" style="endArrow=none;html=1;rounded=0;entryX=1;entryY=1;entryDx=0;entryDy=0;exitX=0.5;exitY=0;exitDx=0;exitDy=0;" parent="1" source="zbhFBkR3SoHCSgycxK6Q-158" target="zbhFBkR3SoHCSgycxK6Q-156" edge="1">
          <mxGeometry relative="1" as="geometry">
            <mxPoint x="882.5" y="-760" as="sourcePoint" />
            <mxPoint x="1042.5" y="-760" as="targetPoint" />
          </mxGeometry>
        </mxCell>
        <mxCell id="JVc2vC-KZvhllYqEc3Bq-84" value="" style="endArrow=none;html=1;rounded=0;entryX=1;entryY=0;entryDx=0;entryDy=0;exitX=0;exitY=0;exitDx=0;exitDy=0;" parent="1" source="zbhFBkR3SoHCSgycxK6Q-156" edge="1">
          <mxGeometry relative="1" as="geometry">
            <mxPoint x="882.5" y="-760" as="sourcePoint" />
            <mxPoint x="967.6455206038422" y="-821.7855678634601" as="targetPoint" />
          </mxGeometry>
        </mxCell>
        <mxCell id="JVc2vC-KZvhllYqEc3Bq-86" value="" style="endArrow=none;html=1;rounded=0;exitX=1;exitY=0.5;exitDx=0;exitDy=0;entryX=0;entryY=0.5;entryDx=0;entryDy=0;" parent="1" source="CRF2aO77LpoMdEhG8NDk-41" target="zbhFBkR3SoHCSgycxK6Q-99" edge="1">
          <mxGeometry relative="1" as="geometry">
            <mxPoint x="2110" y="-123.81" as="sourcePoint" />
            <mxPoint x="2270" y="-123.81" as="targetPoint" />
          </mxGeometry>
        </mxCell>
        <mxCell id="JVc2vC-KZvhllYqEc3Bq-87" value="" style="endArrow=none;html=1;rounded=0;exitX=1;exitY=0.5;exitDx=0;exitDy=0;entryX=0;entryY=0;entryDx=0;entryDy=0;" parent="1" source="zbhFBkR3SoHCSgycxK6Q-103" target="zbhFBkR3SoHCSgycxK6Q-99" edge="1">
          <mxGeometry relative="1" as="geometry">
            <mxPoint x="2110" y="-123.81" as="sourcePoint" />
            <mxPoint x="2270" y="-123.81" as="targetPoint" />
          </mxGeometry>
        </mxCell>
        <mxCell id="JVc2vC-KZvhllYqEc3Bq-88" value="" style="endArrow=none;html=1;rounded=0;exitX=1;exitY=0.5;exitDx=0;exitDy=0;entryX=0.25;entryY=0;entryDx=0;entryDy=0;" parent="1" source="zbhFBkR3SoHCSgycxK6Q-100" target="zbhFBkR3SoHCSgycxK6Q-99" edge="1">
          <mxGeometry relative="1" as="geometry">
            <mxPoint x="2110" y="-123.81" as="sourcePoint" />
            <mxPoint x="2270" y="-123.81" as="targetPoint" />
          </mxGeometry>
        </mxCell>
        <mxCell id="JVc2vC-KZvhllYqEc3Bq-89" value="" style="endArrow=none;html=1;rounded=0;exitX=0.5;exitY=1;exitDx=0;exitDy=0;entryX=0.5;entryY=0;entryDx=0;entryDy=0;" parent="1" source="zbhFBkR3SoHCSgycxK6Q-105" target="zbhFBkR3SoHCSgycxK6Q-99" edge="1">
          <mxGeometry relative="1" as="geometry">
            <mxPoint x="2110" y="-123.81" as="sourcePoint" />
            <mxPoint x="2270" y="-123.81" as="targetPoint" />
          </mxGeometry>
        </mxCell>
        <mxCell id="JVc2vC-KZvhllYqEc3Bq-90" value="" style="endArrow=none;html=1;rounded=0;exitX=0.5;exitY=1;exitDx=0;exitDy=0;entryX=0.75;entryY=0;entryDx=0;entryDy=0;" parent="1" source="zbhFBkR3SoHCSgycxK6Q-106" target="zbhFBkR3SoHCSgycxK6Q-99" edge="1">
          <mxGeometry relative="1" as="geometry">
            <mxPoint x="2110" y="-123.81" as="sourcePoint" />
            <mxPoint x="2270" y="-123.81" as="targetPoint" />
          </mxGeometry>
        </mxCell>
        <mxCell id="JVc2vC-KZvhllYqEc3Bq-91" value="" style="endArrow=none;html=1;rounded=0;exitX=0;exitY=1;exitDx=0;exitDy=0;entryX=1;entryY=0;entryDx=0;entryDy=0;" parent="1" source="zbhFBkR3SoHCSgycxK6Q-107" target="zbhFBkR3SoHCSgycxK6Q-99" edge="1">
          <mxGeometry relative="1" as="geometry">
            <mxPoint x="2110" y="-123.81" as="sourcePoint" />
            <mxPoint x="2270" y="-123.81" as="targetPoint" />
          </mxGeometry>
        </mxCell>
        <mxCell id="JVc2vC-KZvhllYqEc3Bq-92" value="" style="endArrow=none;html=1;rounded=0;exitX=1;exitY=0.5;exitDx=0;exitDy=0;entryX=0;entryY=0.5;entryDx=0;entryDy=0;" parent="1" source="zbhFBkR3SoHCSgycxK6Q-99" target="zbhFBkR3SoHCSgycxK6Q-104" edge="1">
          <mxGeometry relative="1" as="geometry">
            <mxPoint x="2110" y="-123.81" as="sourcePoint" />
            <mxPoint x="2270" y="-123.81" as="targetPoint" />
          </mxGeometry>
        </mxCell>
        <mxCell id="JVc2vC-KZvhllYqEc3Bq-93" value="" style="endArrow=none;html=1;rounded=0;exitX=1;exitY=1;exitDx=0;exitDy=0;entryX=0;entryY=0.5;entryDx=0;entryDy=0;" parent="1" source="zbhFBkR3SoHCSgycxK6Q-99" target="zbhFBkR3SoHCSgycxK6Q-102" edge="1">
          <mxGeometry relative="1" as="geometry">
            <mxPoint x="2110" y="-123.81" as="sourcePoint" />
            <mxPoint x="2270" y="-123.81" as="targetPoint" />
          </mxGeometry>
        </mxCell>
        <mxCell id="JVc2vC-KZvhllYqEc3Bq-94" value="" style="endArrow=none;html=1;rounded=0;exitX=0.5;exitY=0;exitDx=0;exitDy=0;entryX=1;entryY=0.5;entryDx=0;entryDy=0;" parent="1" target="zbhFBkR3SoHCSgycxK6Q-131" edge="1">
          <mxGeometry relative="1" as="geometry">
            <mxPoint x="3159.999999999999" y="-277.55999999999995" as="sourcePoint" />
            <mxPoint x="3010" y="-437.56" as="targetPoint" />
          </mxGeometry>
        </mxCell>
        <mxCell id="JVc2vC-KZvhllYqEc3Bq-95" value="" style="endArrow=none;html=1;rounded=0;exitX=0.5;exitY=0;exitDx=0;exitDy=0;entryX=1;entryY=0.75;entryDx=0;entryDy=0;" parent="1" source="zbhFBkR3SoHCSgycxK6Q-137" target="zbhFBkR3SoHCSgycxK6Q-131" edge="1">
          <mxGeometry relative="1" as="geometry">
            <mxPoint x="2850" y="-437.56" as="sourcePoint" />
            <mxPoint x="3050" y="-277.56" as="targetPoint" />
          </mxGeometry>
        </mxCell>
        <mxCell id="JVc2vC-KZvhllYqEc3Bq-96" value="" style="endArrow=none;html=1;rounded=0;exitX=1;exitY=1;exitDx=0;exitDy=0;entryX=0.25;entryY=0;entryDx=0;entryDy=0;" parent="1" source="zbhFBkR3SoHCSgycxK6Q-138" target="zbhFBkR3SoHCSgycxK6Q-131" edge="1">
          <mxGeometry relative="1" as="geometry">
            <mxPoint x="2850" y="-437.56" as="sourcePoint" />
            <mxPoint x="3010" y="-437.56" as="targetPoint" />
          </mxGeometry>
        </mxCell>
        <mxCell id="JVc2vC-KZvhllYqEc3Bq-97" value="" style="endArrow=none;html=1;rounded=0;exitX=0.5;exitY=1;exitDx=0;exitDy=0;entryX=0.5;entryY=0;entryDx=0;entryDy=0;" parent="1" source="zbhFBkR3SoHCSgycxK6Q-136" target="zbhFBkR3SoHCSgycxK6Q-131" edge="1">
          <mxGeometry relative="1" as="geometry">
            <mxPoint x="2850" y="-437.56" as="sourcePoint" />
            <mxPoint x="3010" y="-437.56" as="targetPoint" />
          </mxGeometry>
        </mxCell>
        <mxCell id="JVc2vC-KZvhllYqEc3Bq-98" value="" style="endArrow=none;html=1;rounded=0;exitX=0;exitY=1;exitDx=0;exitDy=0;entryX=0.75;entryY=0;entryDx=0;entryDy=0;" parent="1" source="zbhFBkR3SoHCSgycxK6Q-135" target="zbhFBkR3SoHCSgycxK6Q-131" edge="1">
          <mxGeometry relative="1" as="geometry">
            <mxPoint x="2850" y="-437.56" as="sourcePoint" />
            <mxPoint x="3010" y="-437.56" as="targetPoint" />
          </mxGeometry>
        </mxCell>
        <mxCell id="JVc2vC-KZvhllYqEc3Bq-99" value="" style="endArrow=none;html=1;rounded=0;exitX=0;exitY=0.5;exitDx=0;exitDy=0;entryX=1;entryY=0;entryDx=0;entryDy=0;" parent="1" source="zbhFBkR3SoHCSgycxK6Q-134" target="zbhFBkR3SoHCSgycxK6Q-131" edge="1">
          <mxGeometry relative="1" as="geometry">
            <mxPoint x="2850" y="-437.56" as="sourcePoint" />
            <mxPoint x="3010" y="-437.56" as="targetPoint" />
          </mxGeometry>
        </mxCell>
        <mxCell id="JVc2vC-KZvhllYqEc3Bq-100" value="" style="endArrow=none;html=1;rounded=0;entryX=0;entryY=0.5;entryDx=0;entryDy=0;exitX=1;exitY=0.5;exitDx=0;exitDy=0;" parent="1" source="zbhFBkR3SoHCSgycxK6Q-131" target="zbhFBkR3SoHCSgycxK6Q-133" edge="1">
          <mxGeometry relative="1" as="geometry">
            <mxPoint x="2850" y="-437.56" as="sourcePoint" />
            <mxPoint x="3010" y="-437.56" as="targetPoint" />
          </mxGeometry>
        </mxCell>
        <mxCell id="JVc2vC-KZvhllYqEc3Bq-101" value="" style="endArrow=none;html=1;rounded=0;exitX=0.5;exitY=1;exitDx=0;exitDy=0;entryX=0.5;entryY=0;entryDx=0;entryDy=0;" parent="1" target="zbhFBkR3SoHCSgycxK6Q-2" edge="1">
          <mxGeometry relative="1" as="geometry">
            <mxPoint x="1030" y="-401.25" as="sourcePoint" />
            <mxPoint x="1380" y="-430" as="targetPoint" />
          </mxGeometry>
        </mxCell>
        <mxCell id="JVc2vC-KZvhllYqEc3Bq-102" value="" style="endArrow=none;html=1;rounded=0;entryX=0.5;entryY=0;entryDx=0;entryDy=0;exitX=0.5;exitY=1;exitDx=0;exitDy=0;" parent="1" target="zbhFBkR3SoHCSgycxK6Q-14" edge="1">
          <mxGeometry relative="1" as="geometry">
            <mxPoint x="1390" y="-431.25" as="sourcePoint" />
            <mxPoint x="1380" y="-430" as="targetPoint" />
          </mxGeometry>
        </mxCell>
        <mxCell id="JVc2vC-KZvhllYqEc3Bq-105" value="1..*" style="text;strokeColor=none;fillColor=none;spacingLeft=4;spacingRight=4;overflow=hidden;rotatable=0;points=[[0,0.5],[1,0.5]];portConstraint=eastwest;fontSize=12;whiteSpace=wrap;html=1;" parent="1" vertex="1">
          <mxGeometry x="1110" y="-33.94" width="40" height="30" as="geometry" />
        </mxCell>
        <mxCell id="JVc2vC-KZvhllYqEc3Bq-107" value="" style="endArrow=none;html=1;rounded=0;exitX=0.5;exitY=1;exitDx=0;exitDy=0;entryX=0.5;entryY=0;entryDx=0;entryDy=0;" parent="1" source="zbhFBkR3SoHCSgycxK6Q-29" target="J4DPUpYBy3NY0CJL0Q2O-44" edge="1">
          <mxGeometry relative="1" as="geometry">
            <mxPoint x="1810" y="-180" as="sourcePoint" />
            <mxPoint x="1850" y="-335.05999999999995" as="targetPoint" />
          </mxGeometry>
        </mxCell>
        <mxCell id="JVc2vC-KZvhllYqEc3Bq-125" value="crear" style="shape=rhombus;perimeter=rhombusPerimeter;whiteSpace=wrap;html=1;align=center;" parent="1" vertex="1">
          <mxGeometry x="1512.5" y="-558.75" width="120" height="60" as="geometry" />
        </mxCell>
        <mxCell id="JVc2vC-KZvhllYqEc3Bq-128" value="" style="endArrow=none;html=1;rounded=0;exitX=1;exitY=0;exitDx=0;exitDy=0;entryX=0;entryY=1;entryDx=0;entryDy=0;strokeColor=#3333FF;strokeWidth=2;" parent="1" source="zbhFBkR3SoHCSgycxK6Q-14" target="JVc2vC-KZvhllYqEc3Bq-125" edge="1">
          <mxGeometry relative="1" as="geometry">
            <mxPoint x="1800" y="-460" as="sourcePoint" />
            <mxPoint x="1960" y="-460" as="targetPoint" />
          </mxGeometry>
        </mxCell>
        <mxCell id="JVc2vC-KZvhllYqEc3Bq-131" value="1" style="edgeLabel;html=1;align=center;verticalAlign=middle;resizable=0;points=[];" parent="JVc2vC-KZvhllYqEc3Bq-128" vertex="1" connectable="0">
          <mxGeometry x="-0.7247" relative="1" as="geometry">
            <mxPoint as="offset" />
          </mxGeometry>
        </mxCell>
        <mxCell id="JVc2vC-KZvhllYqEc3Bq-129" value="" style="endArrow=none;html=1;rounded=0;exitX=0.5;exitY=0;exitDx=0;exitDy=0;strokeColor=#3333FF;entryX=0.25;entryY=1;entryDx=0;entryDy=0;strokeWidth=2;" parent="1" source="JVc2vC-KZvhllYqEc3Bq-125" target="JVc2vC-KZvhllYqEc3Bq-1" edge="1">
          <mxGeometry relative="1" as="geometry">
            <mxPoint x="1611.9099999999996" y="-511.19" as="sourcePoint" />
            <mxPoint x="1611.91" y="-643.94" as="targetPoint" />
          </mxGeometry>
        </mxCell>
        <mxCell id="JVc2vC-KZvhllYqEc3Bq-132" value="*" style="edgeLabel;html=1;align=center;verticalAlign=middle;resizable=0;points=[];" parent="JVc2vC-KZvhllYqEc3Bq-129" vertex="1" connectable="0">
          <mxGeometry x="0.7986" y="1" relative="1" as="geometry">
            <mxPoint as="offset" />
          </mxGeometry>
        </mxCell>
        <mxCell id="JVc2vC-KZvhllYqEc3Bq-133" value="1..*" style="text;strokeColor=none;fillColor=none;spacingLeft=4;spacingRight=4;overflow=hidden;rotatable=0;points=[[0,0.5],[1,0.5]];portConstraint=eastwest;fontSize=12;whiteSpace=wrap;html=1;" parent="1" vertex="1">
          <mxGeometry x="1562.5" y="-500" width="40" height="30" as="geometry" />
        </mxCell>
        <mxCell id="JVc2vC-KZvhllYqEc3Bq-134" value="pedir" style="shape=rhombus;perimeter=rhombusPerimeter;whiteSpace=wrap;html=1;align=center;" parent="1" vertex="1">
          <mxGeometry x="1890" y="-723.75" width="120" height="60" as="geometry" />
        </mxCell>
        <mxCell id="JVc2vC-KZvhllYqEc3Bq-138" value="id_biblioteca" style="ellipse;whiteSpace=wrap;html=1;align=center;" parent="1" vertex="1">
          <mxGeometry x="1245" y="-413.12" width="100" height="40" as="geometry" />
        </mxCell>
        <mxCell id="JVc2vC-KZvhllYqEc3Bq-139" value="" style="endArrow=none;html=1;rounded=0;exitX=0;exitY=0.5;exitDx=0;exitDy=0;entryX=1;entryY=0;entryDx=0;entryDy=0;" parent="1" source="zbhFBkR3SoHCSgycxK6Q-14" target="JVc2vC-KZvhllYqEc3Bq-138" edge="1">
          <mxGeometry relative="1" as="geometry">
            <mxPoint x="1510" y="-220" as="sourcePoint" />
            <mxPoint x="1670" y="-220" as="targetPoint" />
          </mxGeometry>
        </mxCell>
        <mxCell id="JVc2vC-KZvhllYqEc3Bq-140" value="" style="endArrow=none;html=1;rounded=0;exitX=1;exitY=0.5;exitDx=0;exitDy=0;entryX=0;entryY=0.75;entryDx=0;entryDy=0;" parent="1" source="CRF2aO77LpoMdEhG8NDk-25" target="zbhFBkR3SoHCSgycxK6Q-71" edge="1">
          <mxGeometry relative="1" as="geometry">
            <mxPoint x="1510" y="140" as="sourcePoint" />
            <mxPoint x="1670" y="140" as="targetPoint" />
          </mxGeometry>
        </mxCell>
        <mxCell id="JVc2vC-KZvhllYqEc3Bq-141" value="" style="endArrow=none;html=1;rounded=0;exitX=1;exitY=0.5;exitDx=0;exitDy=0;entryX=0;entryY=1;entryDx=0;entryDy=0;" parent="1" source="CRF2aO77LpoMdEhG8NDk-43" target="zbhFBkR3SoHCSgycxK6Q-99" edge="1">
          <mxGeometry relative="1" as="geometry">
            <mxPoint x="1510" y="20" as="sourcePoint" />
            <mxPoint x="1670" y="20" as="targetPoint" />
          </mxGeometry>
        </mxCell>
        <mxCell id="JVc2vC-KZvhllYqEc3Bq-142" value="*" style="edgeLabel;html=1;align=center;verticalAlign=middle;resizable=0;points=[];" parent="JVc2vC-KZvhllYqEc3Bq-141" vertex="1" connectable="0">
          <mxGeometry x="0.6241" y="4" relative="1" as="geometry">
            <mxPoint y="7" as="offset" />
          </mxGeometry>
        </mxCell>
        <mxCell id="JVc2vC-KZvhllYqEc3Bq-144" value="" style="endArrow=none;html=1;rounded=0;entryX=0;entryY=0.5;entryDx=0;entryDy=0;exitX=1;exitY=0;exitDx=0;exitDy=0;" parent="1" source="zbhFBkR3SoHCSgycxK6Q-71" target="CRF2aO77LpoMdEhG8NDk-43" edge="1">
          <mxGeometry relative="1" as="geometry">
            <mxPoint x="1510" y="20" as="sourcePoint" />
            <mxPoint x="1670" y="20" as="targetPoint" />
          </mxGeometry>
        </mxCell>
        <mxCell id="JVc2vC-KZvhllYqEc3Bq-145" value="1" style="edgeLabel;html=1;align=center;verticalAlign=middle;resizable=0;points=[];" parent="JVc2vC-KZvhllYqEc3Bq-144" vertex="1" connectable="0">
          <mxGeometry x="-0.6774" relative="1" as="geometry">
            <mxPoint as="offset" />
          </mxGeometry>
        </mxCell>
        <mxCell id="JVc2vC-KZvhllYqEc3Bq-147" value="" style="endArrow=none;html=1;rounded=0;exitX=1;exitY=0;exitDx=0;exitDy=0;entryX=0;entryY=1;entryDx=0;entryDy=0;strokeColor=#ff7300;strokeWidth=2;" parent="1" source="CRF2aO77LpoMdEhG8NDk-15" target="zbhFBkR3SoHCSgycxK6Q-71" edge="1">
          <mxGeometry relative="1" as="geometry">
            <mxPoint x="1510" y="140" as="sourcePoint" />
            <mxPoint x="1670" y="140" as="targetPoint" />
            <Array as="points">
              <mxPoint x="1520" y="110" />
            </Array>
          </mxGeometry>
        </mxCell>
        <mxCell id="JVc2vC-KZvhllYqEc3Bq-148" value="1" style="edgeLabel;html=1;align=center;verticalAlign=middle;resizable=0;points=[];" parent="JVc2vC-KZvhllYqEc3Bq-147" vertex="1" connectable="0">
          <mxGeometry x="0.6716" y="-1" relative="1" as="geometry">
            <mxPoint as="offset" />
          </mxGeometry>
        </mxCell>
        <mxCell id="JVc2vC-KZvhllYqEc3Bq-149" value="" style="endArrow=none;html=1;rounded=0;exitX=0.5;exitY=1;exitDx=0;exitDy=0;entryX=0.5;entryY=0;entryDx=0;entryDy=0;" parent="1" source="zbhFBkR3SoHCSgycxK6Q-53" target="CRF2aO77LpoMdEhG8NDk-1" edge="1">
          <mxGeometry relative="1" as="geometry">
            <mxPoint x="2305" y="400.1" as="sourcePoint" />
            <mxPoint x="2465" y="400.1" as="targetPoint" />
          </mxGeometry>
        </mxCell>
        <mxCell id="JVc2vC-KZvhllYqEc3Bq-150" value="1" style="edgeLabel;html=1;align=center;verticalAlign=middle;resizable=0;points=[];" parent="JVc2vC-KZvhllYqEc3Bq-149" vertex="1" connectable="0">
          <mxGeometry x="-0.7368" y="-1" relative="1" as="geometry">
            <mxPoint as="offset" />
          </mxGeometry>
        </mxCell>
        <mxCell id="JVc2vC-KZvhllYqEc3Bq-151" value="" style="endArrow=none;html=1;rounded=0;exitX=0;exitY=0.5;exitDx=0;exitDy=0;entryX=1;entryY=0;entryDx=0;entryDy=0;fillColor=#76608a;strokeColor=#ff0000;strokeWidth=2;" parent="1" source="CRF2aO77LpoMdEhG8NDk-1" target="zbhFBkR3SoHCSgycxK6Q-60" edge="1">
          <mxGeometry relative="1" as="geometry">
            <mxPoint x="1510" y="260" as="sourcePoint" />
            <mxPoint x="1670" y="260" as="targetPoint" />
            <Array as="points">
              <mxPoint x="1680" y="350" />
              <mxPoint x="1370" y="350" />
            </Array>
          </mxGeometry>
        </mxCell>
        <mxCell id="JVc2vC-KZvhllYqEc3Bq-152" value="*" style="edgeLabel;html=1;align=center;verticalAlign=middle;resizable=0;points=[];" parent="JVc2vC-KZvhllYqEc3Bq-151" vertex="1" connectable="0">
          <mxGeometry x="0.3388" y="1" relative="1" as="geometry">
            <mxPoint x="1" as="offset" />
          </mxGeometry>
        </mxCell>
        <mxCell id="JVc2vC-KZvhllYqEc3Bq-155" value="" style="endArrow=none;html=1;rounded=0;exitX=0.25;exitY=0;exitDx=0;exitDy=0;entryX=0.25;entryY=1;entryDx=0;entryDy=0;strokeColor=#ff7300;strokeWidth=2;" parent="1" source="zbhFBkR3SoHCSgycxK6Q-60" target="CRF2aO77LpoMdEhG8NDk-15" edge="1">
          <mxGeometry relative="1" as="geometry">
            <mxPoint x="1510" y="260" as="sourcePoint" />
            <mxPoint x="1670" y="260" as="targetPoint" />
          </mxGeometry>
        </mxCell>
        <mxCell id="JVc2vC-KZvhllYqEc3Bq-156" value="*" style="edgeLabel;html=1;align=center;verticalAlign=middle;resizable=0;points=[];" parent="JVc2vC-KZvhllYqEc3Bq-155" vertex="1" connectable="0">
          <mxGeometry x="0.5981" y="-4" relative="1" as="geometry">
            <mxPoint y="-1" as="offset" />
          </mxGeometry>
        </mxCell>
        <mxCell id="JVc2vC-KZvhllYqEc3Bq-157" value="" style="endArrow=none;html=1;rounded=0;exitX=0.75;exitY=0;exitDx=0;exitDy=0;entryX=0;entryY=1;entryDx=0;entryDy=0;strokeColor=#66CC00;strokeWidth=2;" parent="1" source="zbhFBkR3SoHCSgycxK6Q-14" target="JVc2vC-KZvhllYqEc3Bq-15" edge="1">
          <mxGeometry relative="1" as="geometry">
            <mxPoint x="1510" y="-460" as="sourcePoint" />
            <mxPoint x="1670" y="-460" as="targetPoint" />
            <Array as="points" />
          </mxGeometry>
        </mxCell>
        <mxCell id="JVc2vC-KZvhllYqEc3Bq-158" value="*..*" style="edgeLabel;html=1;align=center;verticalAlign=middle;resizable=0;points=[];" parent="JVc2vC-KZvhllYqEc3Bq-157" vertex="1" connectable="0">
          <mxGeometry x="0.0539" y="6" relative="1" as="geometry">
            <mxPoint x="-104" y="-148" as="offset" />
          </mxGeometry>
        </mxCell>
        <mxCell id="JVc2vC-KZvhllYqEc3Bq-160" value="" style="endArrow=none;html=1;rounded=0;exitX=1;exitY=0.5;exitDx=0;exitDy=0;entryX=0.5;entryY=0;entryDx=0;entryDy=0;strokeColor=#005700;strokeWidth=2;fillColor=#008a00;" parent="1" source="JVc2vC-KZvhllYqEc3Bq-15" target="zbhFBkR3SoHCSgycxK6Q-29" edge="1">
          <mxGeometry relative="1" as="geometry">
            <mxPoint x="1510" y="-460" as="sourcePoint" />
            <mxPoint x="1670" y="-460" as="targetPoint" />
            <Array as="points">
              <mxPoint x="1860" y="-920" />
            </Array>
          </mxGeometry>
        </mxCell>
        <mxCell id="JVc2vC-KZvhllYqEc3Bq-161" value="*..*" style="edgeLabel;html=1;align=center;verticalAlign=middle;resizable=0;points=[];" parent="JVc2vC-KZvhllYqEc3Bq-160" vertex="1" connectable="0">
          <mxGeometry x="-0.2593" relative="1" as="geometry">
            <mxPoint x="-18" y="130" as="offset" />
          </mxGeometry>
        </mxCell>
        <mxCell id="6fN6J9S1xSakN0Js31tv-5" value="*" style="edgeLabel;html=1;align=center;verticalAlign=middle;resizable=0;points=[];" parent="JVc2vC-KZvhllYqEc3Bq-160" vertex="1" connectable="0">
          <mxGeometry x="-0.9427" y="-4" relative="1" as="geometry">
            <mxPoint y="-1" as="offset" />
          </mxGeometry>
        </mxCell>
        <mxCell id="6fN6J9S1xSakN0Js31tv-6" value="*" style="edgeLabel;html=1;align=center;verticalAlign=middle;resizable=0;points=[];" parent="JVc2vC-KZvhllYqEc3Bq-160" vertex="1" connectable="0">
          <mxGeometry x="0.8932" y="-3" relative="1" as="geometry">
            <mxPoint y="-1" as="offset" />
          </mxGeometry>
        </mxCell>
        <mxCell id="JVc2vC-KZvhllYqEc3Bq-164" value="" style="endArrow=none;html=1;rounded=0;entryX=0.25;entryY=0;entryDx=0;entryDy=0;exitX=1;exitY=1;exitDx=0;exitDy=0;strokeColor=#FF6666;strokeWidth=2;" parent="1" source="JVc2vC-KZvhllYqEc3Bq-15" target="JVc2vC-KZvhllYqEc3Bq-1" edge="1">
          <mxGeometry relative="1" as="geometry">
            <mxPoint x="1510" y="-580" as="sourcePoint" />
            <mxPoint x="1670" y="-580" as="targetPoint" />
          </mxGeometry>
        </mxCell>
        <mxCell id="JVc2vC-KZvhllYqEc3Bq-165" value="" style="endArrow=none;html=1;rounded=0;entryX=0;entryY=0.5;entryDx=0;entryDy=0;exitX=1;exitY=1;exitDx=0;exitDy=0;" parent="1" source="JVc2vC-KZvhllYqEc3Bq-6" target="JVc2vC-KZvhllYqEc3Bq-234" edge="1">
          <mxGeometry relative="1" as="geometry">
            <mxPoint x="1277.5" y="-1060" as="sourcePoint" />
            <mxPoint x="1542.5" y="-1150" as="targetPoint" />
          </mxGeometry>
        </mxCell>
        <mxCell id="JVc2vC-KZvhllYqEc3Bq-166" value="" style="endArrow=none;html=1;rounded=0;entryX=0.5;entryY=1;entryDx=0;entryDy=0;exitX=0.5;exitY=0;exitDx=0;exitDy=0;" parent="1" source="JVc2vC-KZvhllYqEc3Bq-26" target="JVc2vC-KZvhllYqEc3Bq-1" edge="1">
          <mxGeometry relative="1" as="geometry">
            <mxPoint x="1520" y="-570" as="sourcePoint" />
            <mxPoint x="1680" y="-570" as="targetPoint" />
          </mxGeometry>
        </mxCell>
        <mxCell id="JVc2vC-KZvhllYqEc3Bq-167" value="" style="endArrow=none;html=1;rounded=0;entryX=0.5;entryY=0;entryDx=0;entryDy=0;exitX=0.5;exitY=1;exitDx=0;exitDy=0;" parent="1" source="JVc2vC-KZvhllYqEc3Bq-3" edge="1">
          <mxGeometry relative="1" as="geometry">
            <mxPoint x="1297.5" y="-1040" as="sourcePoint" />
            <mxPoint x="1592.5" y="-1150" as="targetPoint" />
          </mxGeometry>
        </mxCell>
        <mxCell id="JVc2vC-KZvhllYqEc3Bq-168" value="" style="endArrow=none;html=1;rounded=0;entryX=1;entryY=0.75;entryDx=0;entryDy=0;exitX=0;exitY=0.5;exitDx=0;exitDy=0;" parent="1" source="JVc2vC-KZvhllYqEc3Bq-4" target="JVc2vC-KZvhllYqEc3Bq-234" edge="1">
          <mxGeometry relative="1" as="geometry">
            <mxPoint x="1287.5" y="-730" as="sourcePoint" />
            <mxPoint x="1447.5" y="-730" as="targetPoint" />
          </mxGeometry>
        </mxCell>
        <mxCell id="JVc2vC-KZvhllYqEc3Bq-169" value="" style="endArrow=none;html=1;rounded=0;entryX=0.5;entryY=1;entryDx=0;entryDy=0;exitX=1;exitY=0;exitDx=0;exitDy=0;" parent="1" target="JVc2vC-KZvhllYqEc3Bq-5" edge="1">
          <mxGeometry relative="1" as="geometry">
            <mxPoint x="1642.5" y="-1150" as="sourcePoint" />
            <mxPoint x="1477.5" y="-1020" as="targetPoint" />
          </mxGeometry>
        </mxCell>
        <mxCell id="JVc2vC-KZvhllYqEc3Bq-170" value="tipo" style="ellipse;whiteSpace=wrap;html=1;align=center;" parent="1" vertex="1">
          <mxGeometry x="1642.5" y="-1340" width="100" height="40" as="geometry" />
        </mxCell>
        <mxCell id="JVc2vC-KZvhllYqEc3Bq-171" value="estado" style="ellipse;whiteSpace=wrap;html=1;align=center;" parent="1" vertex="1">
          <mxGeometry x="1455" y="-1340" width="100" height="40" as="geometry" />
        </mxCell>
        <mxCell id="JVc2vC-KZvhllYqEc3Bq-172" value="" style="endArrow=none;html=1;rounded=0;strokeColor=#009900;strokeWidth=2;entryX=0;entryY=0.5;entryDx=0;entryDy=0;exitX=1;exitY=0.25;exitDx=0;exitDy=0;" parent="1" source="JVc2vC-KZvhllYqEc3Bq-1" target="JVc2vC-KZvhllYqEc3Bq-134" edge="1">
          <mxGeometry relative="1" as="geometry">
            <mxPoint x="1710" y="-681" as="sourcePoint" />
            <mxPoint x="1900" y="-580" as="targetPoint" />
          </mxGeometry>
        </mxCell>
        <mxCell id="JVc2vC-KZvhllYqEc3Bq-179" value="*" style="edgeLabel;html=1;align=center;verticalAlign=middle;resizable=0;points=[];" parent="JVc2vC-KZvhllYqEc3Bq-172" vertex="1" connectable="0">
          <mxGeometry x="-0.2835" y="-1" relative="1" as="geometry">
            <mxPoint as="offset" />
          </mxGeometry>
        </mxCell>
        <mxCell id="JVc2vC-KZvhllYqEc3Bq-173" value="" style="endArrow=none;html=1;rounded=0;exitX=1;exitY=0.5;exitDx=0;exitDy=0;strokeColor=#009900;strokeWidth=2;entryX=0;entryY=0;entryDx=0;entryDy=0;" parent="1" source="JVc2vC-KZvhllYqEc3Bq-134" target="zbhFBkR3SoHCSgycxK6Q-80" edge="1">
          <mxGeometry relative="1" as="geometry">
            <mxPoint x="1540" y="-460" as="sourcePoint" />
            <mxPoint x="2340" y="-690" as="targetPoint" />
          </mxGeometry>
        </mxCell>
        <mxCell id="JVc2vC-KZvhllYqEc3Bq-180" value="*" style="edgeLabel;html=1;align=center;verticalAlign=middle;resizable=0;points=[];" parent="JVc2vC-KZvhllYqEc3Bq-173" vertex="1" connectable="0">
          <mxGeometry x="0.4423" relative="1" as="geometry">
            <mxPoint as="offset" />
          </mxGeometry>
        </mxCell>
        <mxCell id="JVc2vC-KZvhllYqEc3Bq-174" value="" style="endArrow=none;html=1;rounded=0;entryX=0.5;entryY=1;entryDx=0;entryDy=0;exitX=0;exitY=0;exitDx=0;exitDy=0;" parent="1" source="JVc2vC-KZvhllYqEc3Bq-234" target="JVc2vC-KZvhllYqEc3Bq-171" edge="1">
          <mxGeometry relative="1" as="geometry">
            <mxPoint x="1542.5" y="-1150" as="sourcePoint" />
            <mxPoint x="1227.5" y="-1300" as="targetPoint" />
          </mxGeometry>
        </mxCell>
        <mxCell id="JVc2vC-KZvhllYqEc3Bq-175" value="" style="endArrow=none;html=1;rounded=0;entryX=0;entryY=1;entryDx=0;entryDy=0;exitX=0.75;exitY=0;exitDx=0;exitDy=0;" parent="1" target="JVc2vC-KZvhllYqEc3Bq-170" edge="1">
          <mxGeometry relative="1" as="geometry">
            <mxPoint x="1617.5" y="-1150" as="sourcePoint" />
            <mxPoint x="1227.5" y="-1300" as="targetPoint" />
          </mxGeometry>
        </mxCell>
        <mxCell id="JVc2vC-KZvhllYqEc3Bq-177" value="" style="endArrow=none;html=1;rounded=0;exitX=0.75;exitY=0;exitDx=0;exitDy=0;entryX=0.25;entryY=1;entryDx=0;entryDy=0;strokeColor=#FF0080;strokeWidth=2;" parent="1" source="zbhFBkR3SoHCSgycxK6Q-71" target="zbhFBkR3SoHCSgycxK6Q-80" edge="1">
          <mxGeometry relative="1" as="geometry">
            <mxPoint x="1790" y="-220" as="sourcePoint" />
            <mxPoint x="2030" y="-500" as="targetPoint" />
            <Array as="points">
              <mxPoint x="2020" y="-350" />
            </Array>
          </mxGeometry>
        </mxCell>
        <mxCell id="JVc2vC-KZvhllYqEc3Bq-182" value="1" style="edgeLabel;html=1;align=center;verticalAlign=middle;resizable=0;points=[];" parent="JVc2vC-KZvhllYqEc3Bq-177" vertex="1" connectable="0">
          <mxGeometry x="-0.9402" y="4" relative="1" as="geometry">
            <mxPoint as="offset" />
          </mxGeometry>
        </mxCell>
        <mxCell id="JVc2vC-KZvhllYqEc3Bq-183" value="&lt;br&gt;*" style="edgeLabel;html=1;align=center;verticalAlign=middle;resizable=0;points=[];" parent="JVc2vC-KZvhllYqEc3Bq-177" vertex="1" connectable="0">
          <mxGeometry x="0.9401" y="3" relative="1" as="geometry">
            <mxPoint as="offset" />
          </mxGeometry>
        </mxCell>
        <mxCell id="JVc2vC-KZvhllYqEc3Bq-178" value="buscar" style="shape=rhombus;perimeter=rhombusPerimeter;whiteSpace=wrap;html=1;align=center;" parent="1" vertex="1">
          <mxGeometry x="1807.5" y="-245" width="120" height="60" as="geometry" />
        </mxCell>
        <mxCell id="JVc2vC-KZvhllYqEc3Bq-181" value="*..*" style="text;strokeColor=none;fillColor=none;spacingLeft=4;spacingRight=4;overflow=hidden;rotatable=0;points=[[0,0.5],[1,0.5]];portConstraint=eastwest;fontSize=12;whiteSpace=wrap;html=1;" parent="1" vertex="1">
          <mxGeometry x="1940" y="-746.19" width="40" height="30" as="geometry" />
        </mxCell>
        <mxCell id="JVc2vC-KZvhllYqEc3Bq-184" value="1..*" style="text;strokeColor=none;fillColor=none;spacingLeft=4;spacingRight=4;overflow=hidden;rotatable=0;points=[[0,0.5],[1,0.5]];portConstraint=eastwest;fontSize=12;whiteSpace=wrap;html=1;" parent="1" vertex="1">
          <mxGeometry x="1812.5" y="-255" width="40" height="30" as="geometry" />
        </mxCell>
        <mxCell id="JVc2vC-KZvhllYqEc3Bq-186" value="" style="endArrow=none;html=1;rounded=0;entryX=0;entryY=0.75;entryDx=0;entryDy=0;strokeColor=#0000FF;strokeWidth=2;exitX=1;exitY=0.25;exitDx=0;exitDy=0;" parent="1" source="zbhFBkR3SoHCSgycxK6Q-14" target="zbhFBkR3SoHCSgycxK6Q-80" edge="1">
          <mxGeometry relative="1" as="geometry">
            <mxPoint x="1550" y="-370" as="sourcePoint" />
            <mxPoint x="1750" y="-460" as="targetPoint" />
            <Array as="points">
              <mxPoint x="1640" y="-400" />
              <mxPoint x="1760" y="-400" />
              <mxPoint x="1760" y="-560" />
              <mxPoint x="1920" y="-560" />
              <mxPoint x="1920" y="-640" />
            </Array>
          </mxGeometry>
        </mxCell>
        <mxCell id="JVc2vC-KZvhllYqEc3Bq-188" value="1" style="edgeLabel;html=1;align=center;verticalAlign=middle;resizable=0;points=[];" parent="JVc2vC-KZvhllYqEc3Bq-186" vertex="1" connectable="0">
          <mxGeometry x="-0.9617" y="1" relative="1" as="geometry">
            <mxPoint x="1" as="offset" />
          </mxGeometry>
        </mxCell>
        <mxCell id="JVc2vC-KZvhllYqEc3Bq-189" value="*" style="edgeLabel;html=1;align=center;verticalAlign=middle;resizable=0;points=[];" parent="JVc2vC-KZvhllYqEc3Bq-186" vertex="1" connectable="0">
          <mxGeometry x="0.9202" y="3" relative="1" as="geometry">
            <mxPoint x="-1" as="offset" />
          </mxGeometry>
        </mxCell>
        <mxCell id="JVc2vC-KZvhllYqEc3Bq-187" value="solicitar" style="shape=rhombus;perimeter=rhombusPerimeter;whiteSpace=wrap;html=1;align=center;" parent="1" vertex="1">
          <mxGeometry x="1700" y="-527.19" width="120" height="60" as="geometry" />
        </mxCell>
        <mxCell id="JVc2vC-KZvhllYqEc3Bq-190" value="1..*" style="text;strokeColor=none;fillColor=none;spacingLeft=4;spacingRight=4;overflow=hidden;rotatable=0;points=[[0,0.5],[1,0.5]];portConstraint=eastwest;fontSize=12;whiteSpace=wrap;html=1;" parent="1" vertex="1">
          <mxGeometry x="1745" y="-552.8199999999999" width="40" height="30" as="geometry" />
        </mxCell>
        <mxCell id="JVc2vC-KZvhllYqEc3Bq-192" value="" style="endArrow=none;html=1;exitX=1;exitY=1;exitDx=0;exitDy=0;entryX=0;entryY=0.75;entryDx=0;entryDy=0;strokeColor=#d400ff;strokeWidth=2;rounded=0;shadow=0;" parent="1" source="JVc2vC-KZvhllYqEc3Bq-193" target="zbhFBkR3SoHCSgycxK6Q-99" edge="1">
          <mxGeometry relative="1" as="geometry">
            <mxPoint x="1590" y="-220" as="sourcePoint" />
            <mxPoint x="1660" y="-150" as="targetPoint" />
            <Array as="points">
              <mxPoint x="1680" y="-150" />
            </Array>
          </mxGeometry>
        </mxCell>
        <mxCell id="JVc2vC-KZvhllYqEc3Bq-198" value="*" style="edgeLabel;html=1;align=center;verticalAlign=middle;resizable=0;points=[];" parent="JVc2vC-KZvhllYqEc3Bq-192" vertex="1" connectable="0">
          <mxGeometry x="0.8575" relative="1" as="geometry">
            <mxPoint x="-1" as="offset" />
          </mxGeometry>
        </mxCell>
        <mxCell id="JVc2vC-KZvhllYqEc3Bq-196" value="" style="endArrow=none;html=1;rounded=0;exitX=1;exitY=1;exitDx=0;exitDy=0;entryX=0;entryY=0;entryDx=0;entryDy=0;strokeColor=#d400ff;strokeWidth=2;" parent="1" source="zbhFBkR3SoHCSgycxK6Q-14" target="JVc2vC-KZvhllYqEc3Bq-193" edge="1">
          <mxGeometry relative="1" as="geometry">
            <mxPoint x="1495" y="-370" as="sourcePoint" />
            <mxPoint x="1990" y="-4" as="targetPoint" />
            <Array as="points">
              <mxPoint x="1490" y="-175" />
            </Array>
          </mxGeometry>
        </mxCell>
        <mxCell id="JVc2vC-KZvhllYqEc3Bq-197" value="1" style="edgeLabel;html=1;align=center;verticalAlign=middle;resizable=0;points=[];" parent="JVc2vC-KZvhllYqEc3Bq-196" vertex="1" connectable="0">
          <mxGeometry x="-0.8406" y="-4" relative="1" as="geometry">
            <mxPoint as="offset" />
          </mxGeometry>
        </mxCell>
        <mxCell id="JVc2vC-KZvhllYqEc3Bq-193" value="dara" style="shape=rhombus;perimeter=rhombusPerimeter;whiteSpace=wrap;html=1;align=center;" parent="1" vertex="1">
          <mxGeometry x="1632.5" y="-190" width="120" height="60" as="geometry" />
        </mxCell>
        <mxCell id="JVc2vC-KZvhllYqEc3Bq-199" value="1..*" style="text;strokeColor=none;fillColor=none;spacingLeft=4;spacingRight=4;overflow=hidden;rotatable=0;points=[[0,0.5],[1,0.5]];portConstraint=eastwest;fontSize=12;whiteSpace=wrap;html=1;" parent="1" vertex="1">
          <mxGeometry x="1672.5" y="-210" width="40" height="30" as="geometry" />
        </mxCell>
        <mxCell id="JVc2vC-KZvhllYqEc3Bq-201" value="" style="endArrow=none;html=1;rounded=0;entryX=0;entryY=0.5;entryDx=0;entryDy=0;exitX=1;exitY=0.5;exitDx=0;exitDy=0;fillColor=#0050ef;strokeColor=#001DBC;strokeWidth=2;" parent="1" source="JVc2vC-KZvhllYqEc3Bq-200" target="JVc2vC-KZvhllYqEc3Bq-1" edge="1">
          <mxGeometry relative="1" as="geometry">
            <mxPoint x="1340" y="-720" as="sourcePoint" />
            <mxPoint x="1500" y="-720" as="targetPoint" />
          </mxGeometry>
        </mxCell>
        <mxCell id="JVc2vC-KZvhllYqEc3Bq-205" value="1" style="edgeLabel;html=1;align=center;verticalAlign=middle;resizable=0;points=[];" parent="JVc2vC-KZvhllYqEc3Bq-201" vertex="1" connectable="0">
          <mxGeometry x="0.7753" y="-2" relative="1" as="geometry">
            <mxPoint as="offset" />
          </mxGeometry>
        </mxCell>
        <mxCell id="JVc2vC-KZvhllYqEc3Bq-203" value="" style="endArrow=none;html=1;rounded=0;entryX=0;entryY=0.5;entryDx=0;entryDy=0;exitX=1;exitY=0.5;exitDx=0;exitDy=0;fillColor=#0050ef;strokeColor=#001DBC;strokeWidth=2;" parent="1" source="zbhFBkR3SoHCSgycxK6Q-156" target="JVc2vC-KZvhllYqEc3Bq-200" edge="1">
          <mxGeometry relative="1" as="geometry">
            <mxPoint x="1340" y="-722" as="sourcePoint" />
            <mxPoint x="1280.0000000000002" y="-823.8099999999997" as="targetPoint" />
          </mxGeometry>
        </mxCell>
        <mxCell id="JVc2vC-KZvhllYqEc3Bq-204" value="1" style="edgeLabel;html=1;align=center;verticalAlign=middle;resizable=0;points=[];" parent="JVc2vC-KZvhllYqEc3Bq-203" vertex="1" connectable="0">
          <mxGeometry x="-0.683" y="1" relative="1" as="geometry">
            <mxPoint as="offset" />
          </mxGeometry>
        </mxCell>
        <mxCell id="JVc2vC-KZvhllYqEc3Bq-200" value="requerir" style="shape=rhombus;perimeter=rhombusPerimeter;whiteSpace=wrap;html=1;align=center;" parent="1" vertex="1">
          <mxGeometry x="1350" y="-804.3499999999999" width="120" height="60" as="geometry" />
        </mxCell>
        <mxCell id="JVc2vC-KZvhllYqEc3Bq-206" value="1..1" style="text;strokeColor=none;fillColor=none;spacingLeft=4;spacingRight=4;overflow=hidden;rotatable=0;points=[[0,0.5],[1,0.5]];portConstraint=eastwest;fontSize=12;whiteSpace=wrap;html=1;" parent="1" vertex="1">
          <mxGeometry x="1390" y="-750.54" width="40" height="30" as="geometry" />
        </mxCell>
        <mxCell id="JVc2vC-KZvhllYqEc3Bq-207" value="" style="endArrow=none;html=1;rounded=0;exitX=0;exitY=1;exitDx=0;exitDy=0;entryX=1;entryY=0;entryDx=0;entryDy=0;fillColor=#d80073;strokeColor=#A50040;strokeWidth=2;" parent="1" source="zbhFBkR3SoHCSgycxK6Q-156" target="zbhFBkR3SoHCSgycxK6Q-2" edge="1">
          <mxGeometry relative="1" as="geometry">
            <mxPoint x="1340" y="-530" as="sourcePoint" />
            <mxPoint x="1500" y="-530" as="targetPoint" />
            <Array as="points" />
          </mxGeometry>
        </mxCell>
        <mxCell id="JVc2vC-KZvhllYqEc3Bq-209" value="1" style="edgeLabel;html=1;align=center;verticalAlign=middle;resizable=0;points=[];" parent="JVc2vC-KZvhllYqEc3Bq-207" vertex="1" connectable="0">
          <mxGeometry x="0.9393" y="-2" relative="1" as="geometry">
            <mxPoint as="offset" />
          </mxGeometry>
        </mxCell>
        <mxCell id="JVc2vC-KZvhllYqEc3Bq-211" value="*" style="edgeLabel;html=1;align=center;verticalAlign=middle;resizable=0;points=[];" parent="JVc2vC-KZvhllYqEc3Bq-207" vertex="1" connectable="0">
          <mxGeometry x="-0.8184" y="-1" relative="1" as="geometry">
            <mxPoint y="1" as="offset" />
          </mxGeometry>
        </mxCell>
        <mxCell id="JVc2vC-KZvhllYqEc3Bq-208" value="remover" style="shape=rhombus;perimeter=rhombusPerimeter;whiteSpace=wrap;html=1;align=center;" parent="1" vertex="1">
          <mxGeometry x="1050" y="-561.25" width="120" height="60" as="geometry" />
        </mxCell>
        <mxCell id="JVc2vC-KZvhllYqEc3Bq-212" value="1..*" style="text;strokeColor=none;fillColor=none;spacingLeft=4;spacingRight=4;overflow=hidden;rotatable=0;points=[[0,0.5],[1,0.5]];portConstraint=eastwest;fontSize=12;whiteSpace=wrap;html=1;" parent="1" vertex="1">
          <mxGeometry x="1130" y="-571.25" width="40" height="30" as="geometry" />
        </mxCell>
        <mxCell id="JVc2vC-KZvhllYqEc3Bq-215" value="" style="endArrow=none;html=1;rounded=0;exitX=1;exitY=0;exitDx=0;exitDy=0;fillColor=#fa6800;strokeColor=#C73500;strokeWidth=2;entryX=0;entryY=1;entryDx=0;entryDy=0;" parent="1" source="JVc2vC-KZvhllYqEc3Bq-216" target="zbhFBkR3SoHCSgycxK6Q-80" edge="1">
          <mxGeometry relative="1" as="geometry">
            <mxPoint x="2090" y="-455.0000000000002" as="sourcePoint" />
            <mxPoint x="2120" y="-600" as="targetPoint" />
            <Array as="points" />
          </mxGeometry>
        </mxCell>
        <mxCell id="JVc2vC-KZvhllYqEc3Bq-220" value="*" style="edgeLabel;html=1;align=center;verticalAlign=middle;resizable=0;points=[];" parent="JVc2vC-KZvhllYqEc3Bq-215" vertex="1" connectable="0">
          <mxGeometry x="0.718" relative="1" as="geometry">
            <mxPoint x="31" y="-14" as="offset" />
          </mxGeometry>
        </mxCell>
        <mxCell id="JVc2vC-KZvhllYqEc3Bq-217" value="" style="endArrow=none;html=1;rounded=0;exitX=1;exitY=0;exitDx=0;exitDy=0;fillColor=#fa6800;strokeColor=#C73500;strokeWidth=2;entryX=0;entryY=1;entryDx=0;entryDy=0;" parent="1" source="zbhFBkR3SoHCSgycxK6Q-29" target="JVc2vC-KZvhllYqEc3Bq-216" edge="1">
          <mxGeometry relative="1" as="geometry">
            <mxPoint x="1840" y="-390" as="sourcePoint" />
            <mxPoint x="2120" y="-600" as="targetPoint" />
            <Array as="points" />
          </mxGeometry>
        </mxCell>
        <mxCell id="JVc2vC-KZvhllYqEc3Bq-219" value="*" style="edgeLabel;html=1;align=center;verticalAlign=middle;resizable=0;points=[];" parent="JVc2vC-KZvhllYqEc3Bq-217" vertex="1" connectable="0">
          <mxGeometry x="-0.7673" y="3" relative="1" as="geometry">
            <mxPoint as="offset" />
          </mxGeometry>
        </mxCell>
        <mxCell id="JVc2vC-KZvhllYqEc3Bq-216" value="enviar" style="shape=rhombus;perimeter=rhombusPerimeter;whiteSpace=wrap;html=1;align=center;" parent="1" vertex="1">
          <mxGeometry x="1980" y="-501.25" width="120" height="60" as="geometry" />
        </mxCell>
        <mxCell id="JVc2vC-KZvhllYqEc3Bq-221" value="*..*" style="text;strokeColor=none;fillColor=none;spacingLeft=4;spacingRight=4;overflow=hidden;rotatable=0;points=[[0,0.5],[1,0.5]];portConstraint=eastwest;fontSize=12;whiteSpace=wrap;html=1;" parent="1" vertex="1">
          <mxGeometry x="2030" y="-525" width="40" height="30" as="geometry" />
        </mxCell>
        <mxCell id="JVc2vC-KZvhllYqEc3Bq-224" value="" style="endArrow=none;html=1;rounded=0;exitX=0.75;exitY=1;exitDx=0;exitDy=0;entryX=0.5;entryY=0;entryDx=0;entryDy=0;fillColor=#76608a;strokeColor=#ff7300;strokeWidth=2;" parent="1" source="JVc2vC-KZvhllYqEc3Bq-225" target="zbhFBkR3SoHCSgycxK6Q-147" edge="1">
          <mxGeometry relative="1" as="geometry">
            <mxPoint x="2272.5" y="128.53" as="sourcePoint" />
            <mxPoint x="2432.5" y="128.53" as="targetPoint" />
          </mxGeometry>
        </mxCell>
        <mxCell id="J4DPUpYBy3NY0CJL0Q2O-43" value="1" style="edgeLabel;html=1;align=center;verticalAlign=middle;resizable=0;points=[];" parent="JVc2vC-KZvhllYqEc3Bq-224" vertex="1" connectable="0">
          <mxGeometry x="0.7942" y="3" relative="1" as="geometry">
            <mxPoint as="offset" />
          </mxGeometry>
        </mxCell>
        <mxCell id="JVc2vC-KZvhllYqEc3Bq-227" value="estafdo" style="ellipse;whiteSpace=wrap;html=1;align=center;" parent="1" vertex="1">
          <mxGeometry x="2197.5" y="740.28" width="100" height="40" as="geometry" />
        </mxCell>
        <mxCell id="JVc2vC-KZvhllYqEc3Bq-228" value="" style="endArrow=none;html=1;rounded=0;entryX=0.5;entryY=0;entryDx=0;entryDy=0;exitX=0.5;exitY=1;exitDx=0;exitDy=0;" parent="1" source="zbhFBkR3SoHCSgycxK6Q-147" target="JVc2vC-KZvhllYqEc3Bq-227" edge="1">
          <mxGeometry relative="1" as="geometry">
            <mxPoint x="2182.5" y="560.28" as="sourcePoint" />
            <mxPoint x="2342.5" y="560.28" as="targetPoint" />
          </mxGeometry>
        </mxCell>
        <mxCell id="JVc2vC-KZvhllYqEc3Bq-229" value="" style="endArrow=none;html=1;rounded=0;entryX=0;entryY=0;entryDx=0;entryDy=0;exitX=0;exitY=1;exitDx=0;exitDy=0;strokeColor=#00aaff;strokeWidth=2;" parent="1" source="zbhFBkR3SoHCSgycxK6Q-2" target="zbhFBkR3SoHCSgycxK6Q-147" edge="1">
          <mxGeometry relative="1" as="geometry">
            <mxPoint x="1510" y="40" as="sourcePoint" />
            <mxPoint x="2220" y="130" as="targetPoint" />
            <Array as="points">
              <mxPoint x="1010" y="620" />
            </Array>
          </mxGeometry>
        </mxCell>
        <mxCell id="JVc2vC-KZvhllYqEc3Bq-231" value="1" style="edgeLabel;html=1;align=center;verticalAlign=middle;resizable=0;points=[];" parent="JVc2vC-KZvhllYqEc3Bq-229" vertex="1" connectable="0">
          <mxGeometry x="-0.9573" y="-1" relative="1" as="geometry">
            <mxPoint as="offset" />
          </mxGeometry>
        </mxCell>
        <mxCell id="JVc2vC-KZvhllYqEc3Bq-232" value="*" style="edgeLabel;html=1;align=center;verticalAlign=middle;resizable=0;points=[];" parent="JVc2vC-KZvhllYqEc3Bq-229" vertex="1" connectable="0">
          <mxGeometry x="0.9269" y="1" relative="1" as="geometry">
            <mxPoint as="offset" />
          </mxGeometry>
        </mxCell>
        <mxCell id="JVc2vC-KZvhllYqEc3Bq-230" value="reportar" style="shape=rhombus;perimeter=rhombusPerimeter;whiteSpace=wrap;html=1;align=center;" parent="1" vertex="1">
          <mxGeometry x="950" y="580" width="120" height="60" as="geometry" />
        </mxCell>
        <mxCell id="JVc2vC-KZvhllYqEc3Bq-233" value="1..*" style="text;strokeColor=none;fillColor=none;spacingLeft=4;spacingRight=4;overflow=hidden;rotatable=0;points=[[0,0.5],[1,0.5]];portConstraint=eastwest;fontSize=12;whiteSpace=wrap;html=1;" parent="1" vertex="1">
          <mxGeometry x="980" y="560" width="40" height="30" as="geometry" />
        </mxCell>
        <mxCell id="JVc2vC-KZvhllYqEc3Bq-234" value="usuario" style="whiteSpace=wrap;html=1;align=center;" parent="1" vertex="1">
          <mxGeometry x="1547.5" y="-1150" width="100" height="40" as="geometry" />
        </mxCell>
        <mxCell id="JVc2vC-KZvhllYqEc3Bq-235" value="saldoInicial" style="ellipse;whiteSpace=wrap;html=1;align=center;" parent="1" vertex="1">
          <mxGeometry x="1712.5" y="-640" width="100" height="40" as="geometry" />
        </mxCell>
        <mxCell id="JVc2vC-KZvhllYqEc3Bq-239" value="" style="endArrow=none;html=1;rounded=0;entryX=0.5;entryY=1;entryDx=0;entryDy=0;exitX=0.5;exitY=0;exitDx=0;exitDy=0;fillColor=#f0a30a;strokeColor=#BD7000;strokeWidth=2;" parent="1" source="JVc2vC-KZvhllYqEc3Bq-15" target="JVc2vC-KZvhllYqEc3Bq-234" edge="1">
          <mxGeometry relative="1" as="geometry">
            <mxPoint x="1570" y="-860" as="sourcePoint" />
            <mxPoint x="1730" y="-860" as="targetPoint" />
          </mxGeometry>
        </mxCell>
        <mxCell id="JVc2vC-KZvhllYqEc3Bq-240" value="" style="endArrow=none;html=1;rounded=0;entryX=0;entryY=0.5;entryDx=0;entryDy=0;exitX=1;exitY=0.25;exitDx=0;exitDy=0;fillColor=#e51400;strokeColor=#B20000;strokeWidth=2;" parent="1" source="zbhFBkR3SoHCSgycxK6Q-2" target="JVc2vC-KZvhllYqEc3Bq-1" edge="1">
          <mxGeometry relative="1" as="geometry">
            <mxPoint x="1570" y="-560" as="sourcePoint" />
            <mxPoint x="1730" y="-560" as="targetPoint" />
            <Array as="points" />
          </mxGeometry>
        </mxCell>
        <mxCell id="JVc2vC-KZvhllYqEc3Bq-243" value="1" style="edgeLabel;html=1;align=center;verticalAlign=middle;resizable=0;points=[];" parent="JVc2vC-KZvhllYqEc3Bq-240" vertex="1" connectable="0">
          <mxGeometry x="-0.9408" y="-2" relative="1" as="geometry">
            <mxPoint as="offset" />
          </mxGeometry>
        </mxCell>
        <mxCell id="JVc2vC-KZvhllYqEc3Bq-244" value="1" style="edgeLabel;html=1;align=center;verticalAlign=middle;resizable=0;points=[];" parent="JVc2vC-KZvhllYqEc3Bq-240" vertex="1" connectable="0">
          <mxGeometry x="0.8678" y="-2" relative="1" as="geometry">
            <mxPoint as="offset" />
          </mxGeometry>
        </mxCell>
        <mxCell id="6fN6J9S1xSakN0Js31tv-8" value="biblioteca destino" style="ellipse;whiteSpace=wrap;html=1;align=center;" parent="1" vertex="1">
          <mxGeometry x="2800" y="403.81" width="100" height="40" as="geometry" />
        </mxCell>
        <mxCell id="6fN6J9S1xSakN0Js31tv-9" value="" style="endArrow=none;html=1;rounded=0;entryX=0;entryY=1;entryDx=0;entryDy=0;exitX=1;exitY=0;exitDx=0;exitDy=0;" parent="1" source="6fN6J9S1xSakN0Js31tv-8" target="zbhFBkR3SoHCSgycxK6Q-116" edge="1">
          <mxGeometry relative="1" as="geometry">
            <mxPoint x="3115" y="333.81" as="sourcePoint" />
            <mxPoint x="3275" y="333.81" as="targetPoint" />
          </mxGeometry>
        </mxCell>
        <mxCell id="6fN6J9S1xSakN0Js31tv-14" value="" style="endArrow=none;html=1;rounded=0;entryX=0;entryY=1;entryDx=0;entryDy=0;fillColor=#60a917;strokeColor=#2D7600;strokeWidth=2;exitX=1;exitY=0.75;exitDx=0;exitDy=0;" parent="1" source="zbhFBkR3SoHCSgycxK6Q-60" target="zbhFBkR3SoHCSgycxK6Q-131" edge="1">
          <mxGeometry relative="1" as="geometry">
            <mxPoint x="1350" y="410" as="sourcePoint" />
            <mxPoint x="2720" y="-128.81" as="targetPoint" />
            <Array as="points">
              <mxPoint x="2370" y="410" />
            </Array>
          </mxGeometry>
        </mxCell>
        <mxCell id="6fN6J9S1xSakN0Js31tv-33" value="*" style="edgeLabel;html=1;align=center;verticalAlign=middle;resizable=0;points=[];" parent="6fN6J9S1xSakN0Js31tv-14" vertex="1" connectable="0">
          <mxGeometry x="-0.889" y="-1" relative="1" as="geometry">
            <mxPoint as="offset" />
          </mxGeometry>
        </mxCell>
        <mxCell id="6fN6J9S1xSakN0Js31tv-34" value="*" style="edgeLabel;html=1;align=center;verticalAlign=middle;resizable=0;points=[];" parent="6fN6J9S1xSakN0Js31tv-14" vertex="1" connectable="0">
          <mxGeometry x="0.9389" relative="1" as="geometry">
            <mxPoint y="-1" as="offset" />
          </mxGeometry>
        </mxCell>
        <mxCell id="6fN6J9S1xSakN0Js31tv-17" value="" style="endArrow=none;html=1;rounded=0;exitX=1;exitY=1;exitDx=0;exitDy=0;entryX=0.5;entryY=0;entryDx=0;entryDy=0;fillColor=#76608a;strokeColor=#ff7300;strokeWidth=2;" parent="1" source="zbhFBkR3SoHCSgycxK6Q-99" target="JVc2vC-KZvhllYqEc3Bq-225" edge="1">
          <mxGeometry relative="1" as="geometry">
            <mxPoint x="2065" y="-4" as="sourcePoint" />
            <mxPoint x="1930" y="630" as="targetPoint" />
            <Array as="points">
              <mxPoint x="2090" y="110" />
              <mxPoint x="2160" y="110" />
              <mxPoint x="2225" y="110" />
            </Array>
          </mxGeometry>
        </mxCell>
        <mxCell id="J4DPUpYBy3NY0CJL0Q2O-41" value="1" style="edgeLabel;html=1;align=center;verticalAlign=middle;resizable=0;points=[];" parent="6fN6J9S1xSakN0Js31tv-17" vertex="1" connectable="0">
          <mxGeometry x="-0.9141" y="-3" relative="1" as="geometry">
            <mxPoint as="offset" />
          </mxGeometry>
        </mxCell>
        <mxCell id="JVc2vC-KZvhllYqEc3Bq-225" value="presenta" style="shape=rhombus;perimeter=rhombusPerimeter;whiteSpace=wrap;html=1;align=center;" parent="1" vertex="1">
          <mxGeometry x="2165" y="259.71999999999997" width="120" height="60" as="geometry" />
        </mxCell>
        <mxCell id="6fN6J9S1xSakN0Js31tv-20" value="indica" style="shape=rhombus;perimeter=rhombusPerimeter;whiteSpace=wrap;html=1;align=center;" parent="1" vertex="1">
          <mxGeometry x="2330" y="360" width="120" height="60" as="geometry" />
        </mxCell>
        <mxCell id="6fN6J9S1xSakN0Js31tv-26" value="" style="endArrow=none;html=1;rounded=0;entryX=0;entryY=0;entryDx=0;entryDy=0;exitX=1;exitY=0.5;exitDx=0;exitDy=0;fillColor=#1ba1e2;strokeColor=#006EAF;strokeWidth=2;" parent="1" source="6fN6J9S1xSakN0Js31tv-28" target="zbhFBkR3SoHCSgycxK6Q-131" edge="1">
          <mxGeometry relative="1" as="geometry">
            <mxPoint x="2420" y="-360" as="sourcePoint" />
            <mxPoint x="2340" y="-360" as="targetPoint" />
            <Array as="points" />
          </mxGeometry>
        </mxCell>
        <mxCell id="6fN6J9S1xSakN0Js31tv-30" value="*" style="edgeLabel;html=1;align=center;verticalAlign=middle;resizable=0;points=[];" parent="6fN6J9S1xSakN0Js31tv-26" vertex="1" connectable="0">
          <mxGeometry x="0.8984" y="5" relative="1" as="geometry">
            <mxPoint x="1" as="offset" />
          </mxGeometry>
        </mxCell>
        <mxCell id="6fN6J9S1xSakN0Js31tv-29" value="" style="endArrow=none;html=1;rounded=0;entryX=0;entryY=0;entryDx=0;entryDy=0;exitX=1;exitY=0.25;exitDx=0;exitDy=0;fillColor=#1ba1e2;strokeColor=#006EAF;strokeWidth=2;" parent="1" source="zbhFBkR3SoHCSgycxK6Q-29" target="6fN6J9S1xSakN0Js31tv-28" edge="1">
          <mxGeometry relative="1" as="geometry">
            <mxPoint x="1840" y="-380" as="sourcePoint" />
            <mxPoint x="2890" y="-289" as="targetPoint" />
            <Array as="points" />
          </mxGeometry>
        </mxCell>
        <mxCell id="6fN6J9S1xSakN0Js31tv-31" value="1" style="edgeLabel;html=1;align=center;verticalAlign=middle;resizable=0;points=[];" parent="6fN6J9S1xSakN0Js31tv-29" vertex="1" connectable="0">
          <mxGeometry x="-0.8789" y="-2" relative="1" as="geometry">
            <mxPoint as="offset" />
          </mxGeometry>
        </mxCell>
        <mxCell id="6fN6J9S1xSakN0Js31tv-28" value="recoger" style="shape=rhombus;perimeter=rhombusPerimeter;whiteSpace=wrap;html=1;align=center;" parent="1" vertex="1">
          <mxGeometry x="2450" y="-403.81" width="120" height="60" as="geometry" />
        </mxCell>
        <mxCell id="6fN6J9S1xSakN0Js31tv-32" value="1..*" style="text;strokeColor=none;fillColor=none;spacingLeft=4;spacingRight=4;overflow=hidden;rotatable=0;points=[[0,0.5],[1,0.5]];portConstraint=eastwest;fontSize=12;whiteSpace=wrap;html=1;" parent="1" vertex="1">
          <mxGeometry x="2490" y="-426.25" width="40" height="30" as="geometry" />
        </mxCell>
        <mxCell id="6fN6J9S1xSakN0Js31tv-35" value="*..*" style="text;html=1;align=center;verticalAlign=middle;resizable=0;points=[];autosize=1;strokeColor=none;fillColor=none;" parent="1" vertex="1">
          <mxGeometry x="2370" y="333.81" width="40" height="30" as="geometry" />
        </mxCell>
        <mxCell id="6fN6J9S1xSakN0Js31tv-36" value="" style="endArrow=none;html=1;rounded=0;entryX=0.5;entryY=0;entryDx=0;entryDy=0;exitX=1;exitY=0;exitDx=0;exitDy=0;strokeColor=#CCCC00;strokeWidth=2;" parent="1" source="JVc2vC-KZvhllYqEc3Bq-1" target="zbhFBkR3SoHCSgycxK6Q-131" edge="1">
          <mxGeometry relative="1" as="geometry">
            <mxPoint x="2520" y="-500" as="sourcePoint" />
            <mxPoint x="2680" y="-500" as="targetPoint" />
            <Array as="points">
              <mxPoint x="1710" y="-1000" />
              <mxPoint x="2940" y="-1000" />
            </Array>
          </mxGeometry>
        </mxCell>
        <mxCell id="6fN6J9S1xSakN0Js31tv-39" value="*" style="edgeLabel;html=1;align=center;verticalAlign=middle;resizable=0;points=[];" parent="6fN6J9S1xSakN0Js31tv-36" vertex="1" connectable="0">
          <mxGeometry x="0.9238" y="1" relative="1" as="geometry">
            <mxPoint as="offset" />
          </mxGeometry>
        </mxCell>
        <mxCell id="6fN6J9S1xSakN0Js31tv-41" value="*" style="edgeLabel;html=1;align=center;verticalAlign=middle;resizable=0;points=[];" parent="6fN6J9S1xSakN0Js31tv-36" vertex="1" connectable="0">
          <mxGeometry x="-0.9631" relative="1" as="geometry">
            <mxPoint as="offset" />
          </mxGeometry>
        </mxCell>
        <mxCell id="6fN6J9S1xSakN0Js31tv-37" value="entrega" style="shape=rhombus;perimeter=rhombusPerimeter;whiteSpace=wrap;html=1;align=center;" parent="1" vertex="1">
          <mxGeometry x="2415" y="-1020" width="120" height="60" as="geometry" />
        </mxCell>
        <mxCell id="6fN6J9S1xSakN0Js31tv-40" value="*..*" style="text;html=1;align=center;verticalAlign=middle;resizable=0;points=[];autosize=1;strokeColor=none;fillColor=none;" parent="1" vertex="1">
          <mxGeometry x="2455" y="-1050" width="40" height="30" as="geometry" />
        </mxCell>
        <mxCell id="6fN6J9S1xSakN0Js31tv-45" value="" style="endArrow=none;html=1;rounded=0;exitX=0.75;exitY=1;exitDx=0;exitDy=0;entryX=0;entryY=0.5;entryDx=0;entryDy=0;" parent="1" source="JVc2vC-KZvhllYqEc3Bq-1" target="JVc2vC-KZvhllYqEc3Bq-235" edge="1">
          <mxGeometry relative="1" as="geometry">
            <mxPoint x="2250" y="-680" as="sourcePoint" />
            <mxPoint x="2410" y="-680" as="targetPoint" />
          </mxGeometry>
        </mxCell>
        <mxCell id="J4DPUpYBy3NY0CJL0Q2O-13" style="rounded=0;orthogonalLoop=1;jettySize=auto;html=1;entryX=1;entryY=1;entryDx=0;entryDy=0;endArrow=none;endFill=0;exitX=0;exitY=0.75;exitDx=0;exitDy=0;strokeColor=#00fbff;strokeWidth=2;" parent="1" source="zbhFBkR3SoHCSgycxK6Q-116" target="zbhFBkR3SoHCSgycxK6Q-60" edge="1">
          <mxGeometry relative="1" as="geometry">
            <mxPoint x="2790" y="-67.69000000000005" as="sourcePoint" />
            <Array as="points">
              <mxPoint x="2620" y="440" />
              <mxPoint x="1520" y="440" />
            </Array>
          </mxGeometry>
        </mxCell>
        <mxCell id="J4DPUpYBy3NY0CJL0Q2O-37" value="*" style="edgeLabel;html=1;align=center;verticalAlign=middle;resizable=0;points=[];" parent="J4DPUpYBy3NY0CJL0Q2O-13" vertex="1" connectable="0">
          <mxGeometry x="-0.9592" y="-3" relative="1" as="geometry">
            <mxPoint y="1" as="offset" />
          </mxGeometry>
        </mxCell>
        <mxCell id="J4DPUpYBy3NY0CJL0Q2O-38" value="*" style="edgeLabel;html=1;align=center;verticalAlign=middle;resizable=0;points=[];" parent="J4DPUpYBy3NY0CJL0Q2O-13" vertex="1" connectable="0">
          <mxGeometry x="0.9496" y="1" relative="1" as="geometry">
            <mxPoint as="offset" />
          </mxGeometry>
        </mxCell>
        <mxCell id="6fN6J9S1xSakN0Js31tv-53" value="supervisa" style="shape=rhombus;perimeter=rhombusPerimeter;whiteSpace=wrap;html=1;align=center;" parent="1" vertex="1">
          <mxGeometry x="1300" y="-260" width="120" height="60" as="geometry" />
        </mxCell>
        <mxCell id="6fN6J9S1xSakN0Js31tv-54" value="" style="endArrow=none;html=1;rounded=0;exitX=1;exitY=1;exitDx=0;exitDy=0;entryX=0;entryY=0.5;entryDx=0;entryDy=0;fillColor=#d80073;strokeColor=#A50040;strokeWidth=2;" parent="1" source="zbhFBkR3SoHCSgycxK6Q-2" target="6fN6J9S1xSakN0Js31tv-53" edge="1">
          <mxGeometry relative="1" as="geometry">
            <mxPoint x="1500" y="-220" as="sourcePoint" />
            <mxPoint x="1660" y="-220" as="targetPoint" />
            <Array as="points">
              <mxPoint x="1110" y="-230" />
            </Array>
          </mxGeometry>
        </mxCell>
        <mxCell id="6fN6J9S1xSakN0Js31tv-61" value="1" style="edgeLabel;html=1;align=center;verticalAlign=middle;resizable=0;points=[];" parent="6fN6J9S1xSakN0Js31tv-54" vertex="1" connectable="0">
          <mxGeometry x="-0.8945" relative="1" as="geometry">
            <mxPoint as="offset" />
          </mxGeometry>
        </mxCell>
        <mxCell id="6fN6J9S1xSakN0Js31tv-55" value="" style="endArrow=none;html=1;rounded=0;exitX=1;exitY=0;exitDx=0;exitDy=0;fillColor=#d80073;strokeColor=#A50040;strokeWidth=2;entryX=0;entryY=1;entryDx=0;entryDy=0;" parent="1" source="6fN6J9S1xSakN0Js31tv-53" target="zbhFBkR3SoHCSgycxK6Q-14" edge="1">
          <mxGeometry relative="1" as="geometry">
            <mxPoint x="1500" y="-220" as="sourcePoint" />
            <mxPoint x="1390" y="-340" as="targetPoint" />
          </mxGeometry>
        </mxCell>
        <mxCell id="6fN6J9S1xSakN0Js31tv-60" value="*" style="edgeLabel;html=1;align=center;verticalAlign=middle;resizable=0;points=[];" parent="6fN6J9S1xSakN0Js31tv-55" vertex="1" connectable="0">
          <mxGeometry x="0.865" y="2" relative="1" as="geometry">
            <mxPoint y="8" as="offset" />
          </mxGeometry>
        </mxCell>
        <mxCell id="6fN6J9S1xSakN0Js31tv-56" value="" style="endArrow=none;html=1;rounded=0;exitX=1;exitY=0.5;exitDx=0;exitDy=0;entryX=0;entryY=1;entryDx=0;entryDy=0;fillColor=#d80073;strokeColor=#A50040;strokeWidth=2;" parent="1" source="6fN6J9S1xSakN0Js31tv-53" target="zbhFBkR3SoHCSgycxK6Q-29" edge="1">
          <mxGeometry relative="1" as="geometry">
            <mxPoint x="1500" y="-220" as="sourcePoint" />
            <mxPoint x="1660" y="-220" as="targetPoint" />
            <Array as="points">
              <mxPoint x="1650" y="-230" />
              <mxPoint x="1650" y="-356" />
            </Array>
          </mxGeometry>
        </mxCell>
        <mxCell id="6fN6J9S1xSakN0Js31tv-59" value="*" style="edgeLabel;html=1;align=center;verticalAlign=middle;resizable=0;points=[];" parent="6fN6J9S1xSakN0Js31tv-56" vertex="1" connectable="0">
          <mxGeometry x="0.9291" y="1" relative="1" as="geometry">
            <mxPoint as="offset" />
          </mxGeometry>
        </mxCell>
        <mxCell id="6fN6J9S1xSakN0Js31tv-63" value="" style="endArrow=none;html=1;rounded=0;fillColor=#1ba1e2;strokeColor=#006EAF;strokeWidth=2;exitX=0.5;exitY=1;exitDx=0;exitDy=0;" parent="1" source="6fN6J9S1xSakN0Js31tv-28" edge="1">
          <mxGeometry relative="1" as="geometry">
            <mxPoint x="2580" y="-310" as="sourcePoint" />
            <mxPoint x="2920" y="260" as="targetPoint" />
            <Array as="points">
              <mxPoint x="2510" y="160" />
              <mxPoint x="2920" y="160" />
            </Array>
          </mxGeometry>
        </mxCell>
        <mxCell id="6fN6J9S1xSakN0Js31tv-64" value="*" style="edgeLabel;html=1;align=center;verticalAlign=middle;resizable=0;points=[];" parent="6fN6J9S1xSakN0Js31tv-63" vertex="1" connectable="0">
          <mxGeometry x="0.928" y="3" relative="1" as="geometry">
            <mxPoint as="offset" />
          </mxGeometry>
        </mxCell>
        <mxCell id="6fN6J9S1xSakN0Js31tv-67" value="id_tb" style="ellipse;whiteSpace=wrap;html=1;align=center;fontStyle=4;" parent="1" vertex="1">
          <mxGeometry x="2740" y="243.81" width="100" height="40" as="geometry" />
        </mxCell>
        <mxCell id="J4DPUpYBy3NY0CJL0Q2O-3" value="id_incidencia" style="ellipse;whiteSpace=wrap;html=1;align=center;fontStyle=4;" parent="1" vertex="1">
          <mxGeometry x="2090" y="700.28" width="100" height="40" as="geometry" />
        </mxCell>
        <mxCell id="J4DPUpYBy3NY0CJL0Q2O-10" value="obtener" style="shape=rhombus;perimeter=rhombusPerimeter;whiteSpace=wrap;html=1;align=center;" parent="1" vertex="1">
          <mxGeometry x="2250" y="-315" width="120" height="60" as="geometry" />
        </mxCell>
        <mxCell id="J4DPUpYBy3NY0CJL0Q2O-12" value="inidca" style="shape=rhombus;perimeter=rhombusPerimeter;whiteSpace=wrap;html=1;align=center;" parent="1" vertex="1">
          <mxGeometry x="2330" y="-20" width="120" height="60" as="geometry" />
        </mxCell>
        <mxCell id="J4DPUpYBy3NY0CJL0Q2O-14" value="detalles_libros" style="shape=associativeEntity;whiteSpace=wrap;html=1;align=center;" parent="1" vertex="1">
          <mxGeometry x="2512.5" y="416" width="140" height="60" as="geometry" />
        </mxCell>
        <mxCell id="J4DPUpYBy3NY0CJL0Q2O-15" value="id_DetallesLibros" style="ellipse;whiteSpace=wrap;html=1;align=center;fontStyle=4;" parent="1" vertex="1">
          <mxGeometry x="2409.5" y="520" width="100" height="40" as="geometry" />
        </mxCell>
        <mxCell id="J4DPUpYBy3NY0CJL0Q2O-16" value="isbn" style="ellipse;whiteSpace=wrap;html=1;align=center;" parent="1" vertex="1">
          <mxGeometry x="2527.5" y="520" width="100" height="40" as="geometry" />
        </mxCell>
        <mxCell id="J4DPUpYBy3NY0CJL0Q2O-17" value="unidades" style="ellipse;whiteSpace=wrap;html=1;align=center;" parent="1" vertex="1">
          <mxGeometry x="2652.5" y="510" width="100" height="40" as="geometry" />
        </mxCell>
        <mxCell id="J4DPUpYBy3NY0CJL0Q2O-18" value="" style="endArrow=none;html=1;rounded=0;exitX=0.5;exitY=0;exitDx=0;exitDy=0;entryX=0;entryY=1;entryDx=0;entryDy=0;" parent="1" source="J4DPUpYBy3NY0CJL0Q2O-15" target="J4DPUpYBy3NY0CJL0Q2O-14" edge="1">
          <mxGeometry relative="1" as="geometry">
            <mxPoint x="2542.5" y="520" as="sourcePoint" />
            <mxPoint x="2702.5" y="520" as="targetPoint" />
          </mxGeometry>
        </mxCell>
        <mxCell id="J4DPUpYBy3NY0CJL0Q2O-19" value="" style="endArrow=none;html=1;rounded=0;exitX=0.5;exitY=0;exitDx=0;exitDy=0;entryX=0.5;entryY=1;entryDx=0;entryDy=0;" parent="1" source="J4DPUpYBy3NY0CJL0Q2O-16" target="J4DPUpYBy3NY0CJL0Q2O-14" edge="1">
          <mxGeometry relative="1" as="geometry">
            <mxPoint x="2467.5" y="520" as="sourcePoint" />
            <mxPoint x="2517.5" y="500" as="targetPoint" />
          </mxGeometry>
        </mxCell>
        <mxCell id="J4DPUpYBy3NY0CJL0Q2O-20" value="" style="endArrow=none;html=1;rounded=0;exitX=0.5;exitY=0;exitDx=0;exitDy=0;entryX=1;entryY=1;entryDx=0;entryDy=0;" parent="1" source="J4DPUpYBy3NY0CJL0Q2O-17" target="J4DPUpYBy3NY0CJL0Q2O-14" edge="1">
          <mxGeometry relative="1" as="geometry">
            <mxPoint x="2477.5" y="530" as="sourcePoint" />
            <mxPoint x="2527.5" y="510" as="targetPoint" />
          </mxGeometry>
        </mxCell>
        <mxCell id="J4DPUpYBy3NY0CJL0Q2O-22" value="atiende" style="shape=rhombus;perimeter=rhombusPerimeter;whiteSpace=wrap;html=1;align=center;" parent="1" vertex="1">
          <mxGeometry x="1380" y="-113.51" width="120" height="60" as="geometry" />
        </mxCell>
        <mxCell id="J4DPUpYBy3NY0CJL0Q2O-26" value="1..*" style="text;strokeColor=none;fillColor=none;spacingLeft=4;spacingRight=4;overflow=hidden;rotatable=0;points=[[0,0.5],[1,0.5]];portConstraint=eastwest;fontSize=12;whiteSpace=wrap;html=1;" parent="1" vertex="1">
          <mxGeometry x="1410" y="-130" width="40" height="30" as="geometry" />
        </mxCell>
        <mxCell id="J4DPUpYBy3NY0CJL0Q2O-34" value="transporta" style="shape=rhombus;perimeter=rhombusPerimeter;whiteSpace=wrap;html=1;align=center;" parent="1" vertex="1">
          <mxGeometry x="2915" y="40" width="120" height="60" as="geometry" />
        </mxCell>
        <mxCell id="J4DPUpYBy3NY0CJL0Q2O-40" style="rounded=0;orthogonalLoop=1;jettySize=auto;html=1;entryX=0;entryY=1;entryDx=0;entryDy=0;endArrow=none;endFill=0;" parent="1" source="J4DPUpYBy3NY0CJL0Q2O-39" target="JVc2vC-KZvhllYqEc3Bq-234" edge="1">
          <mxGeometry relative="1" as="geometry" />
        </mxCell>
        <mxCell id="J4DPUpYBy3NY0CJL0Q2O-39" value="id_persona" style="ellipse;whiteSpace=wrap;html=1;align=center;fontStyle=4;" parent="1" vertex="1">
          <mxGeometry x="1345" y="-1180" width="100" height="40" as="geometry" />
        </mxCell>
        <mxCell id="J4DPUpYBy3NY0CJL0Q2O-44" value="id_transportista" style="ellipse;whiteSpace=wrap;html=1;align=center;fontStyle=4;" parent="1" vertex="1">
          <mxGeometry x="1730" y="-337.56" width="100" height="40" as="geometry" />
        </mxCell>
        <mxCell id="J4DPUpYBy3NY0CJL0Q2O-46" style="rounded=0;orthogonalLoop=1;jettySize=auto;html=1;exitX=0.5;exitY=0;exitDx=0;exitDy=0;entryX=0.5;entryY=1;entryDx=0;entryDy=0;endArrow=none;endFill=0;" parent="1" source="J4DPUpYBy3NY0CJL0Q2O-45" target="zbhFBkR3SoHCSgycxK6Q-29" edge="1">
          <mxGeometry relative="1" as="geometry" />
        </mxCell>
        <mxCell id="J4DPUpYBy3NY0CJL0Q2O-45" value="id_biblioteca" style="ellipse;whiteSpace=wrap;html=1;align=center;" parent="1" vertex="1">
          <mxGeometry x="1850" y="-337.56" width="100" height="40" as="geometry" />
        </mxCell>
        <mxCell id="J4DPUpYBy3NY0CJL0Q2O-47" value="id_admin" style="ellipse;whiteSpace=wrap;html=1;align=center;fontStyle=4;" parent="1" vertex="1">
          <mxGeometry x="970" y="-437.56" width="100" height="40" as="geometry" />
        </mxCell>
        <mxCell id="J4DPUpYBy3NY0CJL0Q2O-48" value="id_quitar" style="ellipse;whiteSpace=wrap;html=1;align=center;fontStyle=4;" parent="1" vertex="1">
          <mxGeometry x="880" y="-840" width="100" height="40" as="geometry" />
        </mxCell>
        <mxCell id="J4DPUpYBy3NY0CJL0Q2O-49" value="id_recepcionista" style="ellipse;whiteSpace=wrap;html=1;align=center;fontStyle=4;" parent="1" vertex="1">
          <mxGeometry x="1310" y="-458.75" width="100" height="40" as="geometry" />
        </mxCell>
        <mxCell id="J4DPUpYBy3NY0CJL0Q2O-50" value="id_tu" style="ellipse;whiteSpace=wrap;html=1;align=center;fontStyle=4;" parent="1" vertex="1">
          <mxGeometry x="3130" y="-285" width="100" height="40" as="geometry" />
        </mxCell>
        <mxCell id="J4DPUpYBy3NY0CJL0Q2O-51" value="id_solicitud" style="ellipse;whiteSpace=wrap;html=1;align=center;fontStyle=4;" parent="1" vertex="1">
          <mxGeometry x="2200" y="-804.35" width="100" height="40" as="geometry" />
        </mxCell>
      </root>
    </mxGraphModel>
  </diagram>
</mxfile>
